<?xml version="1.0" standalone="no"?>
<svg xmlns="http://www.w3.org/2000/svg" version="1.1" xmlns:xlink="http://www.w3.org/1999/xlink" width="512" height="512" x="0" y="0" viewBox="0 0 66 66" style="enable-background:new 0 0 512 512" xml:space="preserve"><g><path d="M54.9 45.5c1.6 0 3-1.3 3-3v-2.9c0-1.6-1.3-3-3-3H12.5c-1.6 0-3 1.3-3 3v2.9c0 1.6 1.3 3 3 3h1.8v2.9h-3.8c-.6 0-1 .4-1 1v5.9c0 .6.4 1 1 1 1.2 0 2.4.5 3.2 1.3.9.9 1.4 2 1.4 3.2V64c0 .6.4 1 1 1h35.1c.6 0 1-.4 1-1v-3.2c0-2.5 2.1-4.6 4.6-4.6.5 0 1-.4 1-1v-5.9c0-.6-.5-1-1-1H53v-2.9h1.9zm-4.7 15.3V63h-2v-2.7c0-1.6-1.3-2.9-2.9-2.9h-1.9c-1.6 0-2.9 1.3-2.9 2.9V63h-3v-2.7c0-1.6-1.3-2.9-2.9-2.9h-1.9c-1.6 0-2.9 1.3-2.9 2.9V63h-3v-2.7c0-1.6-1.3-2.9-2.9-2.9H22c-1.6 0-2.9 1.3-2.9 2.9V63h-2v-2.2c0-1.7-.7-3.3-1.9-4.6h36.9c-1.1 1.2-1.9 2.9-1.9 4.6zm5.6-10.4v3.9H11.5v-3.9zm-43.3-6.9c-.5 0-1-.4-1-1v-2.9c0-.5.4-1 1-1h42.4c.5 0 1 .4 1 1v2.9c0 .5-.4 1-1 1zM62.6 18.1c-.6-.8-1.3-1.5-2-2.1-1.7-1.3-3.7-2.1-5.4-2.4-1.6-.4-2.9-.4-3-.5H39.8l-8.3-8.5c-.2-.2-.5-.3-.8-.3l-4.6.2c-.3 0-.6.2-.8.4-.2.3-.2.6-.1.9l2.6 7.3H17.6L9.5 1.5C9.3 1.2 9 1 8.6 1H4.2c-.3 0-.6.1-.8.4-.2.2-.2.6-.2.9l3.4 13c-2.7 1.7-3.9 3.2-3.9 4.8.1 1.3 1 2.4 2.7 3.2 1.4.7 3 1 4.7 1l16.8-.1-3.8 9.2c-.1.3-.1.7.1 1s.5.4.8.4l5.6-.1c.3 0 .5-.1.7-.3l10.2-9.9c5.5.3 14.4-.4 19.3-.8 1.3-.1 2.4-.9 2.9-2.1.7-1.2.6-2.5-.1-3.5zm-40.7 1.5h-3.3c-.6 0-1-.4-1-1 0-.5.4-1 1-1h3.3c.5 0 1 .5 1 1 0 .6-.4 1-1 1zm7.3 0h-3.3c-.5 0-1-.4-1-1 0-.5.5-1 1-1h3.3c.6 0 1 .5 1 1 0 .6-.4 1-1 1zm7.3 0h-3.3c-.6 0-1-.4-1-1 0-.5.4-1 1-1h3.3c.6 0 1 .5 1 1 0 .6-.4 1-1 1zm7.3 0h-3.3c-.5 0-1-.4-1-1 0-.5.5-1 1-1h3.3c.5 0 1 .5 1 1 0 .6-.4 1-1 1z" fill="#e0af51" opacity="1" data-original="#000000"/></g></svg>