<?xml version="1.0" standalone="no"?>
<svg xmlns="http://www.w3.org/2000/svg" version="1.1" xmlns:xlink="http://www.w3.org/1999/xlink" width="512" height="512" x="0" y="0" viewBox="0 0 64 64" style="enable-background:new 0 0 512 512" xml:space="preserve"><g><path d="m37.335 20.318-10.809 2.894-10.054-5.802c-.512-.295-.359-1.063.218-1.153l6.352-.948a12.459 12.459 0 0 1 7.864 1.434zm-8.132 16.611 1.959-3.394L15.205 37.8c3.47.615 7.991.384 13.998-.871zm31.403-11.283h-.013l-14.254 3.817-2.164 3.612 13.998-3.753c3.906-1.05 5.661-3.022 5.827-4.585zM7.694 33.808l-2.725 7.333a.62.62 0 0 0 .743.816l1.762-.472a3.724 3.724 0 0 0 2.263-1.737l3.681-6.377a.621.621 0 0 0-.699-.911l-2.41.646-2.615.702zm55.947-10.57-3.445.922-12.73 3.407-2.126.576c-2.625 4.367-5.238 8.735-7.864 13.115a12.488 12.488 0 0 1-6.096 5.174l-5.968 2.344a.618.618 0 0 1-.768-.884c3.227-5.597 6.468-11.206 9.695-16.803l-2.1.564-19.006 5.11 1.511-2.625a2.123 2.123 0 0 0 .013-2.152c-.397-.666-1.101-1.089-1.87-1.089-.192 0-.384.026-.563.077l-5.699 1.524A645.106 645.106 0 0 1 .13 24.365a.617.617 0 0 1 .32-.973c1.178-.307 3.227-.858 4.457-1.191.615-.167 1.268 0 1.742.435l6.276 5.814 36.782-9.862c3.176-.858 5.622.166 7.313 1.114l-4.585 1.23a.775.775 0 0 0-.538.948c.102.41.538.64.935.538l6.096-1.639c1.678.218 3.842 1.063 4.713 2.459zM24.298 29.27a.77.77 0 0 0-.935-.551.789.789 0 0 0-.551.948.77.77 0 0 0 .948.538.751.751 0 0 0 .538-.935zm4.495-1.204a.77.77 0 0 0-.935-.551.789.789 0 0 0-.551.948.77.77 0 0 0 .948.538.751.751 0 0 0 .538-.935zm4.495-1.203a.77.77 0 0 0-.935-.551.789.789 0 0 0-.551.948.77.77 0 0 0 .948.538.752.752 0 0 0 .538-.935zm4.496-1.204a.77.77 0 0 0-.935-.551.789.789 0 0 0-.551.948.77.77 0 0 0 .948.538.752.752 0 0 0 .538-.935zm4.495-1.204a.77.77 0 0 0-.935-.551.77.77 0 0 0-.538.948c.102.41.525.653.935.538a.752.752 0 0 0 .538-.935zm4.495-1.204a.77.77 0 0 0-.935-.551.77.77 0 0 0-.538.948c.102.41.525.653.935.538s.654-.525.538-.935z" fill="#cd9e4c" opacity="1" data-original="#000000"/></g></svg>