<?xml version="1.0" standalone="no"?>
<svg xmlns="http://www.w3.org/2000/svg" version="1.1" xmlns:xlink="http://www.w3.org/1999/xlink" width="512" height="512" x="0" y="0" viewBox="0 0 6.827 6.827" style="enable-background:new 0 0 512 512" xml:space="preserve" fill-rule="evenodd" class=""><g><g fill="#141414"><g fill-rule="nonzero"><path d="M5.322 4.16v.026a.324.324 0 0 1-.324.325.324.324 0 0 1-.325-.325v-.003l.65-.023zM4.998 2.77a.324.324 0 0 1 .324.325v.127L4.74 2.9a.327.327 0 0 1 .259-.13zM1.504 4.186V4.16l.65.023v.003a.324.324 0 0 1-.325.325.324.324 0 0 1-.325-.325zM1.829 2.77a.323.323 0 0 1 .259.13l-.584.322v-.127a.324.324 0 0 1 .325-.324z" fill="#e0af51" opacity="1" data-original="#141414" class=""/></g><path d="M3.903 5.17V4.13l.77-.027.65-.023.572-.02a.08.08 0 0 0 .077-.08v-.263a.08.08 0 0 0-.046-.072l-.604-.332L4.7 2.97l-.808-.444c.024-.656-.052-1.052-.147-1.29-.105-.262-.24-.348-.296-.375a.08.08 0 0 0-.075.003c-.06.03-.188.118-.29.372-.095.238-.172.634-.147 1.29l-.808.444-.624.343-.608.334a.08.08 0 0 0-.042.072v.261c0 .044.036.08.08.08h.004l.566.02.65.023.77.027v1.04l-.715.49a.08.08 0 0 0-.035.067v.166a.08.08 0 0 0 .103.077l1.136-.268 1.141.27a.08.08 0 0 0 .098-.08v-.166a.08.08 0 0 0-.039-.069l-.71-.487zm-.636-3.226a.134.134 0 1 0 .267 0 .134.134 0 0 0-.267 0z" fill="#e0af51" opacity="1" data-original="#141414" class=""/></g></g></svg>