<?xml version="1.0" standalone="no"?>
<svg xmlns="http://www.w3.org/2000/svg" version="1.1" xmlns:xlink="http://www.w3.org/1999/xlink" width="512" height="512" x="0" y="0" viewBox="0 0 512 512" style="enable-background:new 0 0 512 512" xml:space="preserve"><g><path fill-rule="evenodd" d="m272.398 380.186-6.819 40.446 63.351 24.078v-16.581zm-32.796 0-56.532 47.942v16.581l63.351-24.078zM256 440.742l-11.146-66.111L256 340.605l11.146 34.027zm124.156-98.235v31.87a63.868 63.868 0 0 1-9.155 0v-31.87c2.976.417 6.178.417 9.155 0zm-19.328 30.344c-73.639-17.996-61.905-126.723 14.752-127.766 76.664 1.051 88.379 109.783 14.748 127.766v-33.508c25.64-12.375 23.5-51.02-3.324-60.505a5.06 5.06 0 0 0-4.669.6 5.069 5.069 0 0 0-2.179 4.171v21.118H371v-21.118a5.07 5.07 0 0 0-2.179-4.171 5.061 5.061 0 0 0-4.669-.6c-26.83 9.481-28.957 48.147-3.324 60.506zm-76.256-143.706c1.168-52.801 6.229-110.533-14.354-152.404-7.341-12.494-21.094-12.528-28.435.001-30.479 58.918-10.299 222.828.428 286.343l10.888-33.233c.411-1.261 1.581-2.106 2.9-2.106s2.489.844 2.9 2.106l10.888 33.233c5.69-26.994 12.991-93.724 14.785-133.94zm105.756 63.232c16.08 13.168 6.332 40.532-14.751 40.272-21.08.259-30.831-27.108-14.749-40.272v12.604c0 5.473 4.444 9.918 9.918 9.918h9.664c5.474 0 9.918-4.445 9.918-9.918zM219.983 181.436 30.414 283.171l-15.095 33.671 5.468 8.596c6.286-8.57 19.383-25.572 26.044-33.894 1.128-1.829 172.832-62.941 174.436-64.015-.788-15.484-1.258-31.048-1.284-46.093zm123.408 65.267c35.065-19.189 83.423-.854 97.422 35.481l23.001 8.382a3.022 3.022 0 0 1 1.355.977c6.669 8.333 19.754 25.315 26.043 33.894l5.468-8.596-15.095-33.671-189.569-101.734c-.025 15.045-.495 30.609-1.283 46.091zM98.493 298.918l-17.563 4.211v8.362c.197 11.54 17.367 11.539 17.563 0zm58.543-14.028-17.563 4.201v9.949c.203 11.537 17.362 11.537 17.563 0zm286.463 4.771a70.562 70.562 0 0 1 2.288 10.712l22.866 5.483-7.744-9.857zm-392.407 6.337-7.744 9.857c.968-.139 142.055-34.22 142.899-34.159h38.083a1261.446 1261.446 0 0 1-2.72-37.801zm285.452-45.287-46.153-16.815a1254.85 1254.85 0 0 1-2.72 37.801h28.207a71.192 71.192 0 0 1 20.666-20.986zm-63.212-113.565v-10.05c-.591-22.858-34.075-22.856-34.664 0v10.05c0 1.689 1.367 3.052 3.052 3.052s3.052-1.363 3.052-3.052v-10.05c0-6.195 5.031-11.23 11.228-11.23s11.228 5.035 11.228 11.23v10.05c.009 3.985 6.091 3.994 6.104 0z" clip-rule="evenodd" fill="#e0af51" opacity="1" data-original="#000000"/></g></svg>