<?xml version="1.0" standalone="no"?>
<svg xmlns="http://www.w3.org/2000/svg" version="1.1" xmlns:xlink="http://www.w3.org/1999/xlink" width="512" height="512" x="0" y="0" viewBox="0 0 64 64" style="enable-background:new 0 0 512 512" xml:space="preserve" class=""><g><path d="m4 28.48-4 2.03 2.29 2 5.01-2.33zM38.41 20.9l-9.23-1.88-3.88 2.01 6.46 2.89zM63.99 21.09c-.17-.84-2-2.03-3.58-2.58l-5.62 2.81c-.15.07-.3.11-.46.11-.39 0-.75-.22-.94-.59-.26-.51-.05-1.14.47-1.4l3.36-1.67c-3.2-.42-7.35-.1-12.01 2.34L15.1 33.77c-.29.13-.63.13-.91-.02L9.64 31.4 4 34.02l2.21 1.92c.71.62 1.31 1.4 1.83 2.37.52.98 1.83 2.55 4.71 2.02.17-.02 8.73-.93 17.35-3.12l2.57-5.59c.1-.23.29-.41.52-.51l10.56-4.78c.41-.19.89-.09 1.2.24.3.33.36.83.14 1.22l-2.85 5.07c.1-.05.21-.09.31-.15 5.82-2.62 17.93-8.08 20.93-10.82.58-.46.53-.72.51-.8z" fill="#e0af51" opacity="1" data-original="#000000"/><path d="m28.19 46.38 5.54-2.66 7.98-14.17-7.3 3.31z" fill="#e0af51" opacity="1" data-original="#000000"/></g></svg>