<?xml version="1.0" standalone="no"?>
<svg xmlns="http://www.w3.org/2000/svg" version="1.1" xmlns:xlink="http://www.w3.org/1999/xlink" width="512" height="512" x="0" y="0" viewBox="0 0 512 512" style="enable-background:new 0 0 512 512" xml:space="preserve" class=""><g><path d="m380.756 229.687-59.625 12.574-36.729 7.738v99.343c0 52.323 44.764 103.798 95.934 114.786h.84c51.16-10.983 95.939-62.464 95.939-114.786v-99.343zm59.743 68.023-74.81 74.81a2.981 2.981 0 0 1-4.238 0l-37.412-37.403c-2.789-2.789 1.445-7.034 4.242-4.237l35.282 35.281 72.698-72.693c2.796-2.797 7.029 1.45 4.238 4.242zm-124.598-60.478-35.113 7.398a2.993 2.993 0 0 0-2.383 2.932v26.65l-33.119-56.809a3.007 3.007 0 0 0-4.72-.614l-46.477 46.477c-9.839 9.837-31.399 22.26-43.581 28.015a3.005 3.005 0 0 0-1.635 3.383l17.178 74.971-12.451 12.446-45.716-72.076a3.007 3.007 0 0 0-.923-.932l-72.077-45.708 12.446-12.446 74.97 17.173a3.006 3.006 0 0 0 3.383-1.644c5.752-12.184 18.179-33.731 28.016-43.568l46.482-46.482c1.385-1.385 1.082-3.731-.614-4.72L54.415 87.073l20.092-20.081 175.774 56.987a2.999 2.999 0 0 0 3.049-.729l65.511-65.521c11.578-11.58 30.249-13.151 43.606-3.688l.476.476c9.465 13.36 7.895 32.026-3.688 43.606l-65.52 65.511a3.01 3.01 0 0 0-.729 3.049z" fill="#cd9e4c" opacity="1" data-original="#000000"/></g></svg>