<?xml version="1.0" standalone="no"?>
<svg xmlns="http://www.w3.org/2000/svg" version="1.1" xmlns:xlink="http://www.w3.org/1999/xlink" width="512" height="512" x="0" y="0" viewBox="0 0 512 512" style="enable-background:new 0 0 512 512" xml:space="preserve" class=""><g><path d="M256 301c49.629 0 90-40.371 90-90s-40.371-90-90-90-90 40.371-90 90 40.371 90 90 90zm-55.605-85.605c5.859-5.859 15.352-5.859 21.211 0L241 234.789l49.395-49.395c5.859-5.859 15.352-5.859 21.211 0s5.859 15.352 0 21.211l-60 60c-2.93 2.93-6.768 4.395-10.605 4.395s-7.676-1.465-10.605-4.395l-30-30c-5.861-5.859-5.861-15.351-.001-21.21z" fill="#cd9e4c" opacity="1" data-original="#000000" class=""/><path d="M50.395 200.395c-5.859 5.859-5.859 15.352 0 21.211l28.96 28.96a15.05 15.05 0 0 1 3.882 14.487l-10.591 39.565c-2.139 7.998 2.607 16.23 10.605 18.369l39.565 10.605a14.989 14.989 0 0 1 10.591 10.605l10.605 39.551c2.153 8.013 10.43 12.773 18.369 10.605l39.551-10.591c5.229-1.377 10.723.088 14.502 3.882l28.96 28.96c2.93 2.93 6.768 4.395 10.605 4.395s7.676-1.465 10.605-4.395l28.96-28.96c3.75-3.765 9.302-5.244 14.487-3.882l39.565 10.591c8.071 2.183 16.23-2.593 18.369-10.605l10.605-39.565a14.989 14.989 0 0 1 10.605-10.591l39.551-10.605c7.998-2.139 12.744-10.371 10.605-18.369l-10.591-39.551c-1.377-5.171.103-10.723 3.882-14.502l28.96-28.96c5.859-5.859 5.859-15.352 0-21.211l-28.96-28.96a15.05 15.05 0 0 1-3.882-14.487l10.591-39.565c2.139-7.998-2.607-16.23-10.605-18.369l-39.565-10.605a14.989 14.989 0 0 1-10.591-10.605l-10.605-39.551c-2.153-8.013-10.313-12.7-18.369-10.605l-39.551 10.591c-5.273 1.318-10.752-.103-14.502-3.882l-28.96-29.96c-5.859-5.859-15.352-5.859-21.211 0l-28.96 29.96c-3.779 3.779-9.316 5.215-14.487 3.882L162.38 27.647c-7.925-2.065-16.216 2.593-18.369 10.605l-10.605 39.565a14.989 14.989 0 0 1-10.605 10.591l-39.55 10.605c-7.998 2.139-12.744 10.371-10.605 18.369l10.591 39.551c1.377 5.171-.103 10.723-3.882 14.502l-28.96 28.96zM256 91c66.167 0 120 53.833 120 120s-53.833 120-120 120-120-53.833-120-120S189.833 91 256 91z" fill="#cd9e4c" opacity="1" data-original="#000000" class=""/><path d="m405.326 360.326-8.364 31.187c-5.244 19.644-23.086 33.369-43.389 33.369-3.97 0-7.939-.527-11.792-1.567l-31.128-8.335-13.132 13.132 43.528 76.388a15.052 15.052 0 0 0 12.539 7.5h.454a15.01 15.01 0 0 0 12.524-6.738l32.813-50.717 59.473-3.574a14.973 14.973 0 0 0 12.319-7.866 15.016 15.016 0 0 0-.22-14.604l-42.876-74.268-22.749 6.093zM40.829 443.104a14.971 14.971 0 0 0 12.319 7.866l59.473 3.574 32.813 50.717a15.008 15.008 0 0 0 12.524 6.738h.454a15.05 15.05 0 0 0 12.539-7.5l43.528-76.388-13.132-13.132-31.201 8.35a44.589 44.589 0 0 1-11.66 1.553c-20.303 0-38.174-13.711-43.447-33.34l-8.364-31.216-22.745-6.101L41.049 428.5a15.016 15.016 0 0 0-.22 14.604z" fill="#cd9e4c" opacity="1" data-original="#000000" class=""/></g></svg>