<?xml version="1.0" standalone="no"?>
<svg xmlns="http://www.w3.org/2000/svg" version="1.1" xmlns:xlink="http://www.w3.org/1999/xlink" width="512" height="512" x="0" y="0" viewBox="0 0 500 500" style="enable-background:new 0 0 512 512" xml:space="preserve"><g><g fill="#333"><path d="M251.301 209.708c45.939 0 83.207-60.196 83.207-114.598 0-54.429-37.268-85.151-83.207-85.151-45.965 0-83.251 29.428-83.251 85.151 0 55.697 37.285 114.598 83.251 114.598zM405.703 267.26c-10.441-8.845-44.64-17.736-75.037-23.391l-51.782 146.537c-1.906-23.905-5.17-65.724-5.17-71.95 0-6.771-20.824-28.252-20.824-28.252s24.313-20.187 24.313-28.249c0-8.063-15.659-24.934-25.223-24.934-9.568 0-25.381 17.688-25.381 24.934s23.539 28.249 23.539 28.249-21.762 21.063-21.762 28.252c0 5.094-3.031 47.401-4.799 71.676l-51.528-145.849c-30.049 6.236-63.593 16.087-73.931 25.366-15.261 13.705-15.848 17.943-17.103 43.501-1.479 29.97-14.372 109.531-14.372 146.397s369.486 34.154 369.486 0S424.65 341.44 422.843 313.15c-1.611-25.542-3.163-34.052-17.14-45.89zm-19.283 91.508h-51.912v-17.202h51.912zM360.001 59.247c3.128 11.167 4.728 23.173 4.728 35.863 0 2.923-.112 5.862-.283 8.806 54.621 36.778 90.632 99.178 90.632 169.839 0 10.783-.856 21.375-2.468 31.713.136 1.878.266 3.79.39 5.756.632 9.813 2.662 28.248 4.816 47.768 1.128 10.256 2.302 20.892 3.4 31.404 19.171-34.564 30.126-74.317 30.126-116.641 0-93.573-53.394-174.622-131.341-214.508zM138.048 102.913a153.381 153.381 0 0 1-.218-7.803c0-13.059 1.641-25.369 4.857-36.765C63.781 97.905 9.591 179.478 9.591 273.756c0 43.719 11.705 84.682 32.068 120.028 1.115-9.642 2.302-19.339 3.447-28.691 2.287-18.655 4.459-36.403 5.377-48.144a204.713 204.713 0 0 1-4.627-43.193c-.001-71.325 36.704-134.208 92.192-170.843z" fill="#e0af51" opacity="1" data-original="#333333"/></g></g></svg>