<?xml version="1.0" standalone="no"?>
<svg xmlns="http://www.w3.org/2000/svg" version="1.1" xmlns:xlink="http://www.w3.org/1999/xlink" width="512" height="512" x="0" y="0" viewBox="0 0 50 50" style="enable-background:new 0 0 512 512" xml:space="preserve" class=""><g><path d="m47.172 26.666-1.94-1.46a1.278 1.278 0 0 0-1.33-.14l-3.775 1.745-9.5-8.457L43.812 7.106a1.307 1.307 0 0 0-.06-2.04l-1.78-1.34a1.327 1.327 0 0 0-1.43-.1l-5.96 3.31-2.72-2.05a2.37 2.37 0 0 0-1.76-.45 2.312 2.312 0 0 0-1.57.92 2.365 2.365 0 0 0 .47 3.32l1.03.78-5.786 3.217-2.823-2.513A19.52 19.52 0 0 0 7.289 5.283a1 1 0 0 0-.914 1.213 19.543 19.543 0 0 0 8.584 12.24l3.195 2.022-1.362 5.898a3.998 3.998 0 0 1-.78 7.92h-1.06l-.72 3.12h2.47a2.931 2.931 0 0 1 2.93-2.85 2.793 2.793 0 0 1 1.27.3l4.471-9.82 10.736 6.793-.627 4.117a1.337 1.337 0 0 0 .5 1.25l1.94 1.45a1.253 1.253 0 0 0 .78.27 1.437 1.437 0 0 0 .5-.1 1.314 1.314 0 0 0 .8-1.02l.557-3.644 1.552-.045a1.966 1.966 0 0 0 1.849-2.453l-.384-1.503 3.356-1.545a1.298 1.298 0 0 0 .75-1.05 1.282 1.282 0 0 0-.51-1.18zm-6.806 5.78L16.028 17.047a17.55 17.55 0 0 1-7.396-9.801 17.55 17.55 0 0 1 11.46 4.408l21.52 19.158.442 1.585zM24.857 40.98a.929.929 0 0 1 0 1.419l-4.631 3.917a.929.929 0 0 1-1.529-.71V43.7h-7.21a2 2 0 0 1-2-2 2 2 0 0 1 2-2h7.21v-1.92a.929.929 0 0 1 1.528-.71zm-8.847-8.403H8.8v1.92a.929.929 0 0 1-1.529.71l-4.631-3.91a.929.929 0 0 1-.001-1.42l4.632-3.917a.929.929 0 0 1 1.529.71v1.907h7.21a2 2 0 0 1 0 4z" data-name="Layer 35" fill="#c59c50" opacity="1" data-original="#000000" class=""/></g></svg>