<?xml version="1.0" standalone="no"?>
<svg xmlns="http://www.w3.org/2000/svg" version="1.1" xmlns:xlink="http://www.w3.org/1999/xlink" width="512" height="512" x="0" y="0" viewBox="0 0 53 53" style="enable-background:new 0 0 512 512" xml:space="preserve"><g><path d="M8.645 27.293a6.02 6.02 0 0 0 2.475-.527.394.394 0 0 1 .326-.004c.86.371 1.818.564 2.771.554.144-.002.228-.161.159-.287a8.198 8.198 0 0 1-.833-2.263.435.435 0 0 1 .042-.288c.31-.604.486-1.276.486-1.987 0-2.648-2.43-4.799-5.426-4.799s-5.422 2.15-5.422 4.799c0 .287.027.57.084.841.448 2.25 2.667 3.961 5.338 3.961zM49.5 49.019h-1.16l.9-15.088a2.576 2.576 0 0 0-2.57-2.73H12.73c-1.48 0-2.66 1.25-2.57 2.73l.9 15.088H3.5a1 1 0 0 0 0 2h46a1 1 0 0 0 0-2zM29.7 37.371a3.305 3.305 0 0 1 0 6.61 3.305 3.305 0 0 1 0-6.61zM15.32 29.201h28.76a6.838 6.838 0 0 0-5.9-3.41h-3.46c1.74-1.46 3.09-3.53 3.89-5.6h2.83c1.29 0 2.34-1.05 2.34-2.34v-2.14c0-.79-.4-1.49-1-1.91-.63-6.67-6.27-11.82-13.08-11.82s-12.44 5.15-13.08 11.82c-.6.42-1 1.12-1 1.91v2.14c0 1.29 1.05 2.34 2.34 2.34h2.83c.8 2.07 2.15 4.14 3.89 5.6h-3.46c-2.44 0-4.69 1.32-5.9 3.41zm5.11-17.45v.01c-.18.51-.31 1.06-.41 1.61h-1.35c.82-5.34 5.47-9.39 11.03-9.39s10.21 4.05 11.03 9.39H39.4c-.88-4.82-4.9-8.35-9.7-8.35-4.24 0-7.87 2.77-9.27 6.73zm3.96 10.86c.68.16 1.49.29 2.43.37.41 1.06 1.46 1.81 2.7 1.81 1.6 0 2.89-1.24 2.89-2.77 0-1.52-1.29-2.76-2.89-2.76-1.2 0-2.22.7-2.66 1.7-2.19-.19-3.48-.7-3.98-.94-.16-.38-.31-.76-.44-1.14-.41-1.23-.62-2.42-.62-3.55a8.55 8.55 0 0 1 .35-2.46c.79-.24 2.76-.64 5.26.44.67.29 1.36.41 2.06.41 2.72 0 5.47-1.84 6.83-2.91a8.54 8.54 0 0 1 1.22 3.67c.03.28.04.56.04.85 0 1.13-.21 2.32-.62 3.55-1.11 3.33-3.85 6.91-7.26 6.91-2.1 0-3.95-1.36-5.31-3.18z" fill="#cd9e4c" opacity="1" data-original="#000000"/></g></svg>