<?xml version="1.0" standalone="no"?>
<svg xmlns="http://www.w3.org/2000/svg" version="1.1" xmlns:xlink="http://www.w3.org/1999/xlink" width="512" height="512" x="0" y="0" viewBox="0 0 64 64" style="enable-background:new 0 0 512 512" xml:space="preserve" class=""><g><path d="M49 36a13 13 0 0 0-10.67 5.59L36 40.22a17.89 17.89 0 0 0 0-16.44l2.33-1.37a13.4 13.4 0 1 0-1-1.73L35 22.05A18 18 0 1 0 35 42l2.34 1.37A13 13 0 1 0 49 36Zm-6-23a1 1 0 0 1 1-1v-1a5 5 0 0 1 10 0v1a1 1 0 0 1 1 1v10a1 1 0 0 1-1 1H44a1 1 0 0 1-1-1Zm-7 19a15.84 15.84 0 0 1-1.73 7.2L30 36.67a10.91 10.91 0 0 0 0-9.34l4.32-2.53A15.84 15.84 0 0 1 36 32ZM20 48a16 16 0 1 1 13.27-24.94l-4.34 2.55a11 11 0 1 0 0 12.78l4.34 2.55A16 16 0 0 1 20 48Zm3-17a1 1 0 0 1 1 1v5a1 1 0 0 1-1 1h-2v3h-2v-3h-3v-2h6v-3h-5a1 1 0 0 1-1-1v-5a1 1 0 0 1 1-1h2v-3h2v3h3v2h-6v3Zm22 13a2 2 0 1 1-2 2 2 2 0 0 1 2-2Zm-.24 10.66-1.42-1.42 9.9-9.9 1.42 1.42ZM53 54a2 2 0 1 1 2-2 2 2 0 0 1-2 2Z" fill="#cd9e4c" opacity="1" data-original="#000000"/><path d="M53 14h-8v8h8Zm-3 6h-2v-4h2ZM52 11a3 3 0 0 0-6 0v1h6Z" fill="#cd9e4c" opacity="1" data-original="#000000"/></g></svg>