<?xml version="1.0" standalone="no"?>
<svg xmlns="http://www.w3.org/2000/svg" version="1.1" xmlns:xlink="http://www.w3.org/1999/xlink" width="512" height="512" x="0" y="0" viewBox="0 0 1000 1000" style="enable-background:new 0 0 512 512" xml:space="preserve"><g><path d="M216 850.33h70.73v28A31.63 31.63 0 0 1 255.14 910h-7.48A31.63 31.63 0 0 1 216 878.37v-28.04zM481.18 850.33h70.73v28A31.63 31.63 0 0 1 520.28 910h-7.48a31.63 31.63 0 0 1-31.63-31.63v-28l.01-.04z" fill="#cd9e4c" opacity="1" data-original="#000000"/><rect width="307.98" height="59.32" x="229.98" y="90" rx="29.66" fill="#cd9e4c" opacity="1" data-original="#000000"/><path d="M263.64 141.69h59.33v130.55h-59.33zM444.97 141.69h59.33v130.55h-59.33z" fill="#cd9e4c" opacity="1" data-original="#000000"/><path d="M505.07 745.94v-5h-280.3a10 10 0 1 1 0-20h280.3v-73.75h-280.3a10 10 0 1 1 0-20h280.3v-73.74h-280.3a10 10 0 1 1 0-20h280.3v-83.74H240.38a25.61 25.61 0 0 1-25.61-25.61v-34.47A25.6 25.6 0 0 1 240.38 364h264.71v-.91A49.08 49.08 0 0 1 554.28 316h51.17a53.13 53.13 0 0 1 4.79-8.59 49.29 49.29 0 0 1 7.1-8.22 77.19 77.19 0 0 0-64.43-34.62H215a77.29 77.29 0 0 0-77.29 77.3V753A77.28 77.28 0 0 0 215 830.33h337.91a77.21 77.21 0 0 0 64.81-35.18h-63.44a49.26 49.26 0 0 1-49.21-49.21zM760.53 364.25H626.78c-5.31 0-9.33-6.08-8.39-12.71L620.6 336l.25-1.85a36 36 0 0 1 5.85-15.37c4.65-6.78 11.52-11 19-11a13.13 13.13 0 0 0 7.8-2.56 12.5 12.5 0 0 0 4.66-6.72 34.36 34.36 0 0 1 33.06-25H696a34.33 34.33 0 0 1 33.06 25 12.9 12.9 0 0 0 12.47 9.28 22.31 22.31 0 0 1 16.21 7.46 34.35 34.35 0 0 1 8.67 18.89l.27 1.85 2.21 15.5c.98 6.69-3.04 12.77-8.36 12.77z" fill="#cd9e4c" opacity="1" data-original="#000000"/><path d="M833 336h-46.08l1.81 12.69a32.38 32.38 0 0 1-7.36 25.83 27.7 27.7 0 0 1-20.84 9.69H626.79a27.69 27.69 0 0 1-20.86-9.71 32.3 32.3 0 0 1-7.33-25.83l1.79-12.67h-46.12a29.22 29.22 0 0 0-29.18 28v381.94a29.2 29.2 0 0 0 29.21 29.21H833a29.21 29.21 0 0 0 29.21-29.21V365.26A29.22 29.22 0 0 0 833 336zM638.37 702.3l-32.63 32.63a12.51 12.51 0 0 1-17.68 0l-17.38-17.38a12.5 12.5 0 0 1 17.67-17.68l8.55 8.55 23.79-23.8a12.5 12.5 0 0 1 17.68 17.68zm0-86.72-32.63 32.63a12.48 12.48 0 0 1-17.68 0l-17.38-17.38a12.5 12.5 0 0 1 17.67-17.68l8.55 8.55 23.79-23.8a12.5 12.5 0 0 1 17.68 17.68zm0-86.72-32.63 32.64a12.51 12.51 0 0 1-17.68 0l-17.38-17.39a12.5 12.5 0 0 1 17.67-17.68l8.55 8.57 23.79-23.79a12.5 12.5 0 0 1 17.68 17.67zm0-86.71-32.63 32.63a12.51 12.51 0 0 1-17.68 0l-17.38-17.39a12.49 12.49 0 0 1 17.67-17.67l8.55 8.54 23.79-23.79a12.5 12.5 0 0 1 17.68 17.68zm171.94 277.63H688a10 10 0 0 1 0-20h122.31a10 10 0 0 1 0 20zm0-86.72H688a10 10 0 0 1 0-20h122.31a10 10 0 0 1 0 20zm0-86.72H688a10 10 0 0 1 0-20h122.31a10 10 0 0 1 0 20zm0-86.72H688a10 10 0 0 1 0-20h122.31a10 10 0 0 1 0 20z" fill="#cd9e4c" opacity="1" data-original="#000000"/></g></svg>