<?xml version="1.0" standalone="no"?>
<svg xmlns="http://www.w3.org/2000/svg" version="1.1" xmlns:xlink="http://www.w3.org/1999/xlink" width="512" height="512" x="0" y="0" viewBox="0 0 512 512" style="enable-background:new 0 0 512 512" xml:space="preserve" class=""><g><path d="M240.914 38.91V0C111.496 7.543 7.543 111.496 0 240.914h38.91c7.356-108.066 93.7-194.633 202.004-202.004zM38.91 271.086H0C7.543 400.504 111.496 504.457 240.914 512v-38.91c-108.066-7.356-194.633-93.7-202.004-202.004zM271.086 473.09V512C400.504 504.457 504.457 400.504 512 271.086h-38.91c-7.356 108.066-93.7 194.633-202.004 202.004zM473.09 240.914H512C504.457 111.496 400.504 7.543 271.086 0v38.91c108.066 7.356 194.633 93.7 202.004 202.004zm0 0" fill="#c79b4a" opacity="1" data-original="#000000" class=""/><path d="M271.086 442.832c91.344-7.312 164.434-80.402 171.746-171.746h-30.906c-8.336 0-15.082-6.758-15.082-15.086s6.746-15.086 15.082-15.086h30.906C435.52 149.57 362.43 76.48 271.086 69.168v30.906c0 8.336-6.758 15.082-15.086 15.082s-15.086-6.746-15.086-15.082V69.168C149.57 76.48 76.48 149.57 69.168 240.914h30.906c8.336 0 15.082 6.758 15.082 15.086s-6.746 15.086-15.082 15.086H69.168C76.48 362.43 149.57 435.52 240.914 442.832v-30.906c0-8.336 6.758-15.082 15.086-15.082s15.086 6.746 15.086 15.082zm-49.227-171.746v54.848c0 8.328-6.757 15.086-15.086 15.086-8.335 0-15.085-6.758-15.085-15.086V186.066c0-8.328 6.75-15.086 15.085-15.086 8.329 0 15.086 6.758 15.086 15.086v54.848h68.282v-54.848c0-8.328 6.757-15.086 15.086-15.086 8.336 0 15.086 6.758 15.086 15.086v139.868c0 8.328-6.75 15.086-15.086 15.086-8.329 0-15.086-6.758-15.086-15.086v-54.848zm0 0" fill="#c79b4a" opacity="1" data-original="#000000" class=""/></g></svg>