<?xml version="1.0" standalone="no"?>
<svg xmlns="http://www.w3.org/2000/svg" version="1.1" xmlns:xlink="http://www.w3.org/1999/xlink" width="512" height="512" x="0" y="0" viewBox="0 0 510 510" style="enable-background:new 0 0 512 512" xml:space="preserve" fill-rule="evenodd" class=""><g><path d="m68.624 131.284 27.205-48.072 3.144 1.815a5 5 0 0 0 3.794.5l72.624-19.464c9.065-2.418 17.822-1.3 25.81 3.63l.005.003 100.125 61.646c2.716 1.672 4.151 5.022 4.435 8.464.437 5.291-2.063 11.122-8.608 12.493-5.92 1.241-14.264-.693-25.609-7.303l-55.176-32.135c-8.747-5.097-17.916-6.503-27.907-4.913l-.017.003-6.848 1.115a4.49 4.49 0 0 0-.202.037l-.007.001c-12.443 2.554-23.983 6.314-36.788 9.755-2.665.716-4.247 3.462-3.531 6.127s3.461 4.247 6.126 3.531c12.534-3.369 23.832-7.062 36.002-9.576 6.45-.722 11.152 1.978 12.634 7.499l.001.002c1.506 5.598-1.991 11.039-7.436 12.951-22.108 4.052-43.748 13.23-57.017 17.533l-.002.001c-10.444 3.391-20.016-.903-29.525-6.402zm-20.889 8.472c-2.211 3.882-7.189 5.266-11.072 3.073l-15.492-8.771c-3.882-2.193-5.266-7.171-3.055-11.071l45.506-80.41c2.193-3.882 7.172-5.266 11.072-3.073l15.474 8.77c3.882 2.193 5.266 7.172 3.073 11.072zm-10.573-11.169a6.42 6.42 0 0 0 7.296-5.414c.502-3.512-1.923-6.794-5.435-7.296-3.513-.523-6.774 1.923-7.296 5.435-.502 3.512 1.923 6.774 5.435 7.275zm379.2 276.589-27.206 48.073-2.487-1.435a4.996 4.996 0 0 0-3.794-.5l-72.624 19.463c-9.065 2.418-17.822 1.301-25.81-3.63l-.005-.002-100.125-61.646c-2.716-1.673-4.151-5.022-4.435-8.465-.437-5.291 2.063-11.121 8.608-12.493 5.92-1.24 14.264.694 25.609 7.303l55.176 32.136c8.747 5.097 17.916 6.503 27.907 4.912l.017-.003 6.848-1.114a4.49 4.49 0 0 0 .202-.037l.007-.001c12.443-2.555 23.983-6.314 36.788-9.756 2.665-.716 4.247-3.461 3.531-6.126s-3.461-4.247-6.126-3.531c-12.534 3.369-23.832 7.062-36.002 9.575-6.45.723-11.152-1.977-12.634-7.498l-.001-.003c-1.506-5.598 1.991-11.038 7.436-12.95 22.108-4.053 43.748-13.231 57.017-17.533l.002-.001c10.444-3.392 20.016.903 29.525 6.402zm21.545-8.091c2.211-3.882 7.189-5.266 11.072-3.073l15.492 8.771c3.882 2.192 5.266 7.171 3.055 11.071l-45.506 80.41c-2.193 3.882-7.172 5.266-11.072 3.073l-15.474-8.771c-3.882-2.192-5.266-7.171-3.073-11.071zm10.573 11.168a6.422 6.422 0 0 0-7.296 5.415c-.502 3.512 1.923 6.794 5.435 7.296 3.513.522 6.774-1.923 7.296-5.436.502-3.512-1.923-6.773-5.435-7.275zM261.131 191.194a69.17 69.17 0 0 1 20.313 8.418l13.202-5.87 15.551 15.55-5.848 13.202a69.05 69.05 0 0 1 8.417 20.335l13.468 5.184v21.996l-13.468 5.184c-1.705 7.177-4.563 14.022-8.417 20.313l5.848 13.202-15.551 15.55-13.202-5.848a68.926 68.926 0 0 1-20.313 8.418l-5.183 13.468h-21.997l-5.183-13.468c-7.199-1.706-14.044-4.563-20.335-8.418l-13.203 5.848-15.55-15.55 5.87-13.202c-3.876-6.269-6.712-13.136-8.439-20.313l-13.469-5.184v-21.996l13.469-5.184a69.697 69.697 0 0 1 8.439-20.335l-5.87-13.202 15.55-15.55 13.203 5.87a69.17 69.17 0 0 1 20.313-8.418l5.205-13.49h21.997zm-16.193 29.44c-21.199 0-38.366 17.167-38.366 38.366s17.167 38.389 38.366 38.389 38.389-17.19 38.389-38.389-17.19-38.366-38.389-38.366zm-50.351 241.753a8.004 8.004 0 0 1 5.503 9.885 8.005 8.005 0 0 1-9.886 5.503C90.69 449.43 17.731 357.781 17.731 249.225c0-16.203 1.626-32.029 4.723-47.324a8.002 8.002 0 0 1 9.428-6.253 8.003 8.003 0 0 1 6.254 9.428 222.306 222.306 0 0 0-4.405 44.149c0 101.246 68.043 186.726 160.856 213.162zm8.418-428.542c-4.291 1.041-8.62-1.598-9.66-5.889s1.599-8.62 5.89-9.66c17.99-4.362 36.777-6.675 56.1-6.675 131.137 0 237.603 106.467 237.603 237.604 0 37.288-8.61 72.581-23.944 104a8.004 8.004 0 0 1-10.698 3.681 8.005 8.005 0 0 1-3.681-10.699c14.3-29.298 22.323-62.21 22.323-96.982 0-122.306-99.297-221.604-221.603-221.604-18.025 0-35.549 2.156-52.33 6.224z" fill="#cd9e4c" opacity="1" data-original="#000000"/></g></svg>