<?xml version="1.0" standalone="no"?>
<svg xmlns="http://www.w3.org/2000/svg" version="1.1" xmlns:xlink="http://www.w3.org/1999/xlink" width="512" height="512" x="0" y="0" viewBox="0 0 510 510" style="enable-background:new 0 0 512 512" xml:space="preserve" fill-rule="evenodd" class=""><g><path d="M237.561 275.537a150.823 150.823 0 0 0-8.664 8.104l-.005.005c-13.049 13.187-29.01 24.928-47.022 35.45-2.495 1.455-4.257 3.886-4.882 6.802-.609 2.843-.03 5.533 1.594 7.969.109.162.222.32.342.474 9.026 11.605 18.561 17.656 28.173 20.35 13.955 3.912 28.377.546 42.535-4.735 10.192-3.802 20.24-8.556 29.846-11.134 7.691-2.063 15.04-2.792 21.747 1.031l66.657 38.015.024.014c2.131 1.206 3.737 2.965 4.719 5.012l.033.069.001.001c1.545 3.148 1.625 6.958-.197 10.243l-.018.032c-2.969 5.411-9.84 7.503-15.251 4.478-15.298-8.551-30.644-17.15-45.846-25.845a8.006 8.006 0 0 0-10.917 2.974 8.005 8.005 0 0 0 2.974 10.916c15.243 8.717 30.628 17.339 45.966 25.913l.016.008c5.404 3.047 7.486 9.891 4.506 15.331-3 5.436-9.864 7.463-15.283 4.495l-.061-.034-60.318-33.937c-3.848-2.165-8.73-.799-10.895 3.049s-.798 8.73 3.05 10.895l48.138 27.085c.335.27.697.517 1.083.736l.084.047c5.365 3.1 7.438 9.918 4.469 15.348-3 5.399-9.847 7.465-15.264 4.515l-.066-.036-34.923-19.804c-2.274-2.731-5.023-4.968-8.132-6.695a3.918 3.918 0 0 0-.129-.07c-6.609-3.515-14.006-4.099-20.699-2.201-2.144-6.621-6.732-12.451-13.303-15.966-6.578-3.518-13.989-4.101-20.688-2.212-2.157-6.613-6.759-12.448-13.331-15.963l-.02-.011a27.823 27.823 0 0 0-17.204-2.957c-1.421-8.184-6.442-15.671-14.267-19.866l-.022-.012c-10.464-5.567-22.955-3.758-31.419 3.567a52.746 52.746 0 0 0-.978-3.885c-2.082-6.994-5.841-12.619-12.85-15.348l-.012-.004c-1.795-.696-6.922-2.948-13.086-5.695l37.356-84.53 14.65 6.76c11.995 6.624 24.045 5.148 37.002 2.185 12.163-2.782 25.388-7.038 40.787-.933zm131.485-.664 33.528 86.409-19.816 8.267a27.587 27.587 0 0 0-6.955-5.582l-66.653-38.013-.002-.001c-15.769-8.989-33.978-3.453-52.868 4.166-20.016 8.073-41.319 18.785-60.476-.717 16.893-10.364 31.919-21.828 44.461-34.502 4.973-5.017 10.466-9.875 16.318-13.899.078-.052.155-.105.232-.159 25.955-17.733 44.637-9.409 60.572-2.899 14.338 5.858 27.131 9.862 40.023 3.153l.081-.042zM270.801 482.07l6.279-11.745a27.243 27.243 0 0 0 2.984-9.066l6.613 3.749a7.949 7.949 0 0 0 1.149.777c5.405 3.053 7.434 9.938 4.447 15.381-2.957 5.388-9.834 7.593-15.167 4.526zm-132.068-82.581.088-.165 3.705-6.934c3.069-5.74 10.289-7.913 16.059-4.851 5.405 2.905 7.665 9.499 5.329 15.06l-16.054 27.746c-3.576 2.679-8.531 3.22-12.709.986l-.014-.007c-5.761-3.065-7.939-10.275-4.846-16.035l.008-.015zm22.339 39.971 16.222-28.037a11.897 11.897 0 0 1 12.793-1.043c4.637 2.485 6.973 7.681 6.076 12.601l-17.762 34.414c-3.119 5.745-10.29 8.005-16.084 4.91l-.013-.007c-5.756-3.063-7.944-10.293-4.853-16.021a.699.699 0 0 0 .025-.047zm32.195 24.018 17.054-33.042c3.597-3.428 9.167-4.351 13.776-1.886 4.644 2.484 6.935 7.695 6.038 12.646l-15.724 30.225c-3.478 4.428-9.777 5.882-14.91 3.172a11.933 11.933 0 0 1-6.234-11.115zm35.687 14.656 15.331-29.468c3.605-3.449 9.126-4.395 13.762-1.977 1.551.872 2.895 1.998 3.951 3.414l.139.195c2.578 3.689 2.967 8.524.846 12.46l-.013.024-9.954 18.619-1.798 3.362c-3.07 5.742-10.294 7.915-16.065 4.848-4.297-2.296-6.57-6.897-6.199-11.477zM140.81 237.698 84.333 365.497l-.009.021c-.937 2.136-3.455 3.092-5.591 2.139l-.032-.014-24.598-10.848-.016-.007c-2.158-.946-3.11-3.51-2.173-5.67l56.466-127.725c.969-2.162 3.508-3.152 5.676-2.219l24.598 10.896.007.003c2.125.939 3.116 3.458 2.16 5.6a.272.272 0 0 0-.011.025zm-20.96-6.172c-6.08-.313-11.219 4.388-11.533 10.468-.25 6.08 4.451 11.22 10.468 11.533 6.08.251 11.22-4.45 11.533-10.53.251-6.08-4.388-11.22-10.468-11.471zm305.272 143.636-50.521-130.203c-.841-2.208.233-4.704 2.44-5.55a.534.534 0 0 0 .036-.014l25.061-9.748c2.194-.846 4.675.272 5.547 2.478l.004.011 50.468 130.188c.842 2.208-.22 4.711-2.41 5.557l-.017.007-25.05 9.744c-2.206.839-4.701-.235-5.546-2.441a.858.858 0 0 1-.012-.029zm-29.242-113.44c6.087 0 10.981-4.957 10.981-10.981 0-6.087-4.894-11.044-10.981-11.044-6.086 0-11.044 4.957-11.044 11.044 0 6.024 4.958 10.981 11.044 10.981zM190.304 45.844a5 5 0 0 1 5-5h31.942c3.01-12.528 14.299-21.846 27.756-21.846 13.458 0 24.747 9.318 27.779 21.846h31.92a5.001 5.001 0 0 1 5 5v33.693a5 5 0 0 1-5 5H195.304a5 5 0 0 1-5-5zm64.698 4.782c4.513 0 8.211-3.698 8.211-8.211 0-4.514-3.698-8.188-8.211-8.188-4.514 0-8.188 3.674-8.188 8.188 0 4.513 3.674 8.211 8.188 8.211zm-80.698 15.752h-42.125a8 8 0 0 0-8 8v133.781l-3.643-1.614-.028-.012a20.2 20.2 0 0 0-11.703-1.386V67.804c0-9.252 7.548-16.8 16.822-16.8h48.677zm161.397-15.374H384.4c9.252 0 16.8 7.548 16.8 16.8v145.71a20.145 20.145 0 0 0-4.832 1.209l-.017.007-10.525 4.094V74.378a8 8 0 0 0-8-8h-42.125zm0 31.374h34.125v142.73c-9.445 4.51-13.972 15.648-10.161 25.587l.011.03 3.54 9.122-13.226 7.074c-4.782 2.474-9.533 1.991-14.491.623-6.774-1.87-13.839-5.331-21.578-8.173-16.919-6.213-36.584-9.998-61.825 5.468-19.016-11.025-35.384-9.215-50.376-5.926-5.58 1.224-10.932 2.667-16.145 3.497-6.252.994-12.279 1.13-18.249-2.232a7.956 7.956 0 0 0-.574-.294l-15.162-6.996 3.853-8.72c4.546-10.224-.173-22.249-10.316-26.73l-4.948-2.192V82.378h34.125v2.159c0 8.837 7.163 16 16 16h129.397c8.837 0 16-7.163 16-16zm-80.699 168.045c39.442 0 71.572-32.131 71.572-71.572 0-39.393-32.13-71.572-71.572-71.572-39.393 0-71.571 32.179-71.571 71.572 0 39.441 32.178 71.572 71.571 71.572zm0-16c-30.586 0-55.571-24.948-55.571-55.572 0-30.587 24.985-55.572 55.571-55.572 30.625 0 55.572 24.985 55.572 55.572 0 30.624-24.947 55.572-55.572 55.572zm-35.52-48.121 17.431 17.431a8 8 0 0 0 11.032.269l42.339-38.408a8.005 8.005 0 0 0 .55-11.301 8.005 8.005 0 0 0-11.301-.55l-36.694 33.288-12.043-12.042a8.003 8.003 0 0 0-11.314 0 8.003 8.003 0 0 0 0 11.313z" fill="#cd9e4c" opacity="1" data-original="#000000" class=""/></g></svg>