<?xml version="1.0" standalone="no"?>
<svg xmlns="http://www.w3.org/2000/svg" version="1.1" xmlns:xlink="http://www.w3.org/1999/xlink" width="512" height="512" x="0" y="0" viewBox="0 0 32 32" style="enable-background:new 0 0 512 512" xml:space="preserve" class=""><g><g data-name="Layer 2"><path d="M23 17a6 6 0 1 0 6 6 6.006 6.006 0 0 0-6-6zm2.9 7.447a1 1 0 0 1-1.342.448l-2-1A1 1 0 0 1 22 23v-3a1 1 0 0 1 2 0v2.382l1.447.723a1 1 0 0 1 .453 1.342zM27 7a3 3 0 0 0-3-3h-3V3a1 1 0 0 0-2 0v1h-9V3a1 1 0 0 0-2 0v1H5a3 3 0 0 0-3 3v3h25z" fill="#cd9e4c" opacity="1" data-original="#000000" class=""/><path d="M23 15a7.906 7.906 0 0 1 4 1.08V12H2v12a3.009 3.009 0 0 0 3 3h11.08A7.906 7.906 0 0 1 15 23a8.011 8.011 0 0 1 8-8zM8 23H6a1 1 0 0 1 0-2h2a1 1 0 0 1 0 2zm0-5H6a1 1 0 0 1 0-2h2a1 1 0 0 1 0 2zm6 0h-2a1 1 0 0 1 0-2h2a1 1 0 0 1 0 2z" fill="#cd9e4c" opacity="1" data-original="#000000" class=""/></g></g></svg>