<?xml version="1.0" standalone="no"?>
<svg xmlns="http://www.w3.org/2000/svg" version="1.1" xmlns:xlink="http://www.w3.org/1999/xlink" width="512" height="512" x="0" y="0" viewBox="0 0 2667 2667" style="enable-background:new 0 0 512 512" xml:space="preserve" fill-rule="evenodd" class=""><g><circle cx="1333" cy="1333" r="1333" fill="#cd9e4c" opacity="1" data-original="#1d81ce" class=""/><path fill="#ffffff" d="m1638 1045-786 454c-217 120-234-95-370-32 13 13 27 27 41 42 146 151 299 309 518 182h1l1146-662c-22-31-57-50-98-62l-261 151c-47 28-111 12-140-38l-27-47c-9 4-17 8-24 12zm75 22c18 35 66 49 104 27l233-134c-115-15-265 19-364 62zm-463 172 230-133-28-15c-195-108-396-219-574-131zm99 125 65-37c15-9 29 14 14 23l-65 37c-16 9-29-14-14-23zm187-77c-15 9-28-14-13-23l65-38c15-9 29 15 13 24zm-347 201c-16 9-29-15-14-24l65-37c16-9 29 14 14 23zm-174 100c-15 9-29-14-13-23l65-38c15-9 28 15 13 24z" opacity="1" data-original="#ffffff" class=""/></g></svg>