<?xml version="1.0" standalone="no"?>
<svg xmlns="http://www.w3.org/2000/svg" version="1.1" xmlns:xlink="http://www.w3.org/1999/xlink" width="512" height="512" x="0" y="0" viewBox="0 0 512 512" style="enable-background:new 0 0 512 512" xml:space="preserve" class=""><g><path d="M174.698 98.55c0-44.351 36.4-80.305 81.302-80.305s81.302 35.954 81.302 80.305-36.4 80.304-81.302 80.304-81.302-35.953-81.302-80.304zm139.265 76.109c-16.126 12.048-36.2 19.195-57.963 19.195s-41.836-7.147-57.962-19.195c-28.154 7.66-52.096 25.828-67.302 49.981h250.527c-15.206-24.153-39.146-42.321-67.3-49.981zm175.664 214.81H22.373c-7.631 0-13.873 6.242-13.873 13.873v16.264c0 7.631 6.251 13.873 13.873 13.873H47.27v46.404c0 7.631 6.258 13.873 13.873 13.873h389.715c7.616 0 13.873-6.258 13.873-13.873v-46.404h24.897c7.629 0 13.873-6.244 13.873-13.873v-16.264c-.001-7.622-6.243-13.873-13.874-13.873zM89.778 253.156c-.462-3.538.52-6.763 2.874-9.444s5.425-4.071 8.993-4.071h308.712c3.568 0 6.639 1.391 8.992 4.071 2.354 2.681 3.335 5.906 2.874 9.444L406.391 374.47H105.609zm142.899 53.899c0 12.881 10.442 23.323 23.323 23.323s23.323-10.442 23.323-23.323-10.442-23.323-23.323-23.323-23.323 10.442-23.323 23.323z" fill="#cd9e4c" opacity="1" data-original="#000000" class=""/></g></svg>