<?xml version="1.0" standalone="no"?>
<svg xmlns="http://www.w3.org/2000/svg" version="1.1" xmlns:xlink="http://www.w3.org/1999/xlink" width="512" height="512" x="0" y="0" viewBox="0 0 512 512" style="enable-background:new 0 0 512 512" xml:space="preserve" class=""><g><path fill-rule="evenodd" d="m231.768 58.57.001-.001L256.001 0l24.231 58.57 58.376 6.514-43.4 39.576 11.845 57.534-51.054-29.045-51.052 29.046 11.846-57.535-43.399-39.575zM108.04 435.485c-7.814-4.177-10.773-13.937-6.593-21.752 0 0 15.671-29.297 15.68-29.318 4.114-7.693 14.094-10.696 21.769-6.595 7.687 4.116 10.69 14.08 6.581 21.757l-15.708 29.359c-4.195 7.778-13.927 10.72-21.729 6.549zm317.336-77.553a33.786 33.786 0 0 0-9.523-8.089l-85.398-48.672c-7.473-4.263-15.172-5.945-22.992-5.945-15.134 0-30.719 6.311-45.956 12.474-28.946 11.727-54.256 21.97-77.911-3.857 22.933-13.917 42.525-29.023 58.332-44.993 6.959-7.033 14.029-13.048 21.009-17.876 33.362-23.063 56.438-13.633 78.755-4.512 16.268 6.651 33.089 13.531 50.71 4.359l34.924-18.693 44.9 115.834zm-11.605 28.774c4.206-7.647 1.312-17.469-6.451-21.894l-85.398-48.672c-14.673-8.369-32.876-1.001-53.949 7.541-31.65 12.804-71.038 28.759-104.335-17.124a8.628 8.628 0 0 1-1.451-6.87 8.605 8.605 0 0 1 4.142-5.666c25.358-14.532 46.672-30.441 63.349-47.295a181.2 181.2 0 0 1 13.123-12.047c-18.935-8.602-34.972-4.817-51.798-.838-16.267 3.841-33.084 7.815-50.251-1.682l-48.647-22.443-51.864 110.357c.857.376 1.804.808 2.852 1.28 14.517 6.539 41.54 18.719 46.501 20.649 12.68 4.918 15.729 17.23 17.571 27.042 3.922-4.126 8.868-7.195 14.483-8.897 8.533-2.581 17.54-1.697 25.361 2.479 7.798 4.156 13.53 11.148 16.124 19.674a33.94 33.94 0 0 1 1.298 6.453c7.51-1.672 15.628-.788 22.931 3.125 7.798 4.156 13.53 11.148 16.124 19.674.168.549.322 1.108.46 1.672a28.813 28.813 0 0 1 1.601-.528c8.533-2.596 17.54-1.712 25.36 2.48 7.798 4.146 13.529 11.133 16.122 19.664.169.559.322 1.108.46 1.667a48.444 48.444 0 0 1 1.602-.528c8.533-2.581 17.539-1.697 25.36 2.48a32.996 32.996 0 0 1 9.841 7.992l37.469 20.721c7.768 4.279 17.561 1.433 21.833-6.331 4.229-7.703 1.353-17.514-6.411-21.874l-52.71-29.674c-4.147-2.337-5.617-7.591-3.283-11.737a8.61 8.61 0 0 1 11.734-3.277l66.686 37.265c7.766 4.268 17.561 1.422 21.832-6.341 4.229-7.693 1.354-17.504-6.411-21.874-.21-.122-52.702-29.801-52.702-29.801-4.142-2.348-5.605-7.607-3.265-11.737 2.342-4.146 7.598-5.615 11.74-3.277l61.219 34.581c7.477 4.221 17.63 1.096 21.748-6.389zM312.733 500.213c-4.272 7.764-14.067 10.61-21.833 6.346l-11.663-6.423 8.88-16.605a33.044 33.044 0 0 0 3.823-13.099l14.356 7.896.077.041c7.767 4.299 10.619 14.1 6.36 21.844zm-64.365 11.081c-4.128 1.25-8.473.828-12.234-1.184-7.816-4.177-10.775-13.937-6.596-21.757l15.035-28.109c4.119-7.698 14.066-10.706 21.767-6.58 7.55 4.039 10.718 14.014 6.582 21.747l-15.033 28.109c-2.013 3.761-5.393 6.525-9.521 7.774zm-45.693-19.277c-4.128 1.25-8.473.828-12.235-1.184-7.816-4.177-10.773-13.937-6.593-21.757l17.176-32.117s.002 0 .002-.005c2.011-3.76 5.392-6.519 9.52-7.769s8.475-.828 12.25 1.184c3.743 1.992 6.496 5.366 7.749 9.492 1.26 4.146.846 8.495-1.167 12.256l-17.181 32.128c-2.01 3.753-5.392 6.522-9.521 7.772zm-47.611-15.69c4.129-1.25 7.508-4.019 9.521-7.779l21.245-39.719c4.106-7.677 1.1-17.642-6.579-21.742-7.433-3.978-17.748-.93-21.73 6.504-.01.021-21.285 39.796-21.285 39.796-4.182 7.82-1.225 17.575 6.594 21.757 3.761 2.011 8.107 2.433 12.234 1.183zm303.332-339.128.002.001 9.282 45.092-40.013-22.769-40.017 22.77 9.285-45.093-34.017-31.021 45.755-5.104 18.993-41.941 18.993 41.937 45.755 5.11zm-438.81-31.022 45.756-5.104 18.993-41.941 18.994 41.937 45.751 5.11-34.014 31.019 9.285 45.093-40.016-22.769-40.015 22.769 9.283-45.093z" clip-rule="evenodd" fill="#d3a95b" opacity="1" data-original="#000000" class=""/></g></svg>