<?xml version="1.0" standalone="no"?>
<svg xmlns="http://www.w3.org/2000/svg" version="1.1" xmlns:xlink="http://www.w3.org/1999/xlink" width="512" height="512" x="0" y="0" viewBox="0 0 64 64" style="enable-background:new 0 0 512 512" xml:space="preserve" class=""><g><path d="m45.072 36.094-15.494 1.874a2.997 2.997 0 0 1-3.268-2.226c-1.342-5.199-4.706-17.048-8.857-23.022-.917-1.321-2.671-1.756-4.131-1.082a3.352 3.352 0 0 0-1.871 3.756l5.241 24.089a9.499 9.499 0 0 0 2.228 4.341c.811.898 1.781 1.612 2.843 2.137a9.374 9.374 0 0 0 1.963.716l.096.026c.297.069.599.121.903.162.058.008.115.021.173.028.353.04.71.064 1.069.064h19.759a5.451 5.451 0 1 0-.654-10.863zM40.611 16.108a4.957 4.957 0 0 0 4.952 4.952h2.109a4.959 4.959 0 0 0 4.953-4.952v-3.717H40.611zM47.672 5.334h-2.109a4.958 4.958 0 0 0-4.952 4.953v.176h12.014v-.176a4.959 4.959 0 0 0-4.953-4.953zM44.225 48.884H25.968c-1.719 0-3.395-.401-4.917-1.128l-3.267 8.246a1.944 1.944 0 0 0 1.809 2.664h26.136c.668 0 1.281-.336 1.641-.9s.406-1.262.123-1.868z" fill="#d7ac5b" opacity="1" data-original="#000000"/><path d="M40.435 31.736a3.623 3.623 0 1 0-1.078-7.166l-13.675 2.057a149.795 149.795 0 0 1 2.067 7.017z" fill="#d7ac5b" opacity="1" data-original="#000000"/></g></svg>