<?xml version="1.0" standalone="no"?>
<svg xmlns="http://www.w3.org/2000/svg" version="1.1" xmlns:xlink="http://www.w3.org/1999/xlink" width="512" height="512" x="0" y="0" viewBox="0 0 512 512" style="enable-background:new 0 0 512 512" xml:space="preserve" class=""><g><path d="M224.08 457.51h-.51A20.33 20.33 0 0 0 203.31 439h-.52a20.33 20.33 0 0 0-20.26-18.52H182A20.35 20.35 0 0 0 147.37 408l-13.8 13.79a20.38 20.38 0 0 0 0 28.78 20.28 20.28 0 0 0 14.39 6h.51A20.35 20.35 0 0 0 168.74 475h.52a20.24 20.24 0 0 0 5.86 12.56 20.24 20.24 0 0 0 14.38 6h.51A20.35 20.35 0 0 0 224.68 506l13.79-13.79a20.35 20.35 0 0 0-14.39-34.74zM345.91 285.46l-60.5-11.36a43.64 43.64 0 0 0-33.94 7.81l-59.09 43.85a21.83 21.83 0 0 0-.17 34.95 31.65 31.65 0 0 0 35.7 1.57l28.83-18.08c3.36 6.68 9.62 15.76 20.5 21.36 12.6 6.47 27.93 6.64 45.6.49l53.93 38.84a6.85 6.85 0 0 0 7 .6l37.11-18.17-45.71-115.75zM511.5 369.21l-56-146.32a7.5 7.5 0 0 0-9.5-4.39l-20.09 7.17 29.71 82a7.5 7.5 0 0 1-4.5 9.61 7.58 7.58 0 0 1-2.55.45 7.5 7.5 0 0 1-7-4.95L411.8 230.7l-24.8 8.85a7.52 7.52 0 0 0-4.46 9.83l59 149.39a7.48 7.48 0 0 0 9.95 4.13l56-24.13a7.49 7.49 0 0 0 4.01-9.56zM129.33 243.52a7.52 7.52 0 0 0-4.31-4l-24.82-8.82-29.74 82.09a7.5 7.5 0 0 1-7 4.95 7.58 7.58 0 0 1-2.55-.45 7.5 7.5 0 0 1-4.5-9.61l29.71-82L66 218.5a7.5 7.5 0 0 0-9.52 4.39L.5 369.21a7.49 7.49 0 0 0 4 9.56l56 24.13a7.5 7.5 0 0 0 9.95-4.13l59-149.39a7.54 7.54 0 0 0-.12-5.86z" fill="#cd9e4c" opacity="1" data-original="#000000" class=""/><path d="M380.78 421.19a21.81 21.81 0 0 1-12.78-4.12l-47.89-34.5a82.93 82.93 0 0 1-21.37 3 61.39 61.39 0 0 1-28.36-6.64 59.41 59.41 0 0 1-18-14.28L235.88 375a46.63 46.63 0 0 1-52.72-2.32 36.83 36.83 0 0 1 .28-58.95l42.83-31.79-1.67-1.2a47.81 47.81 0 0 0-41.31-7l-25.36 7.55-20.18-12.06-48.48 122.7L123.1 411l13.66-13.66a35.38 35.38 0 0 1 50 0 35.49 35.49 0 0 1 7 10 35.51 35.51 0 0 1 20.77 18.51 35.49 35.49 0 0 1 20.78 18.51 35.36 35.36 0 0 1 13.78 58.53l-.19.2 2.91 2.18a26.43 26.43 0 0 0 34.58-2.6l.85-.86a26.5 26.5 0 0 0 7.2-14.13 26.41 26.41 0 0 0 25.82-6.71l.62-.62a26.26 26.26 0 0 0 7.54-15.61 26.25 26.25 0 0 0 26.11-6.65l.42-.42a26.4 26.4 0 0 0 7.48-15.11 26.36 26.36 0 0 0 32.47-25.76l-4.5 2.2a21.93 21.93 0 0 1-9.62 2.19zM406.94 117.5a7.5 7.5 0 0 0 7.5 7.5H456a7.5 7.5 0 0 0 0-15h-41.56a7.5 7.5 0 0 0-7.5 7.5zM398.86 83.31a7.5 7.5 0 0 0 3.8-1L433.82 64a7.5 7.5 0 0 0-7.59-13l-31.17 18.34a7.5 7.5 0 0 0 3.8 14zM395.06 165.66 426.23 184a7.5 7.5 0 0 0 7.59-13l-31.16-18.3a7.5 7.5 0 1 0-7.6 12.93zM56 125h41.56a7.5 7.5 0 0 0 0-15H56a7.5 7.5 0 0 0 0 15zM78.18 64l31.16 18.3a7.5 7.5 0 1 0 7.6-12.93L85.77 51a7.5 7.5 0 0 0-7.59 13zM109.34 152.73 78.18 171a7.5 7.5 0 0 0 7.59 13l31.17-18.31a7.5 7.5 0 1 0-7.6-12.93zM256 190a72.5 72.5 0 1 0-72.5-72.5A72.58 72.58 0 0 0 256 190zm-45.12-81.18a7.5 7.5 0 0 1 10.6.36L244.66 134l45.86-49.13a7.5 7.5 0 0 1 11 10.24l-51.34 55a7.51 7.51 0 0 1-11 0l-28.65-30.7a7.49 7.49 0 0 1 .35-10.59z" fill="#cd9e4c" opacity="1" data-original="#000000" class=""/><path d="M256 235a117.5 117.5 0 1 0-117.5-117.5A117.63 117.63 0 0 0 256 235zm0-205a87.5 87.5 0 1 1-87.5 87.5A87.6 87.6 0 0 1 256 30z" fill="#cd9e4c" opacity="1" data-original="#000000" class=""/></g></svg>