<?xml version="1.0" encoding="UTF-8"?>
<svg id="Layer_1" data-name="Layer 1" xmlns="http://www.w3.org/2000/svg" viewBox="0 0 2016 1107.33">
  <defs>
    <style>
      .cls-1 {
        fill: #ea1f27;
      }
    </style>
  </defs>
  <path class="cls-1" d="M969.28,308.13c-14.59,10.17-21.12,23.02-21.12,39.83l.05,244.97-56.17,33.7c-1.52.91-5.82,1.38-6.94.61s-2.26-4.21-2.26-6.13l-.15-279.43c0-8.32-5.11-19.36-8.57-25.77-10.37-19.24-35.97-8.71-39.62-17.46-1.13-2.7,2.32-8.79,5.23-10.33l72.86-38.74c7.89,2.95,15.8,10.32,19.62,17.1l17.74,31.49,50.31-47.29c12.05-11.33,29.94-6.02,39.71,5.04,11.57,13.1,20.74,25.42,32.19,40.46l53.81-46.33c8.49-7.31,22.55-11.07,33.32-4.52,29.73,18.08,53.69,52.32,50.55,89.22l-20.57,241.31c9.93,7.55,7.36.54,22.38,7.65,1.4.66-.38,5.9-1.97,6.61-29.16,13.17-59.85,27.14-93.6,39.66l23.86-277.37c1.21-14.02-3.42-28.3-8.36-40.42-5.19-12.73-19.27-19.42-32.69-12.57-13.21,6.74-30.1,23.06-30.2,40.4l-1.48,247.37-63.73,39.87-1.05-285.57c-.04-10.21-5.11-21.48-9.55-29.21-5.4-9.4-15.89-9.54-23.61-4.16h0Z"/>
  <path class="cls-1" d="M350.12,604.17c-23.57,16.11-42.42,33.66-64.91,15.45-51.15-41.41-70.28-120.51-82.95-126.6-1.16-.56-3.29,3.62-3.29,5.5l.07,89.57c0,5.48-3.49,11.34-8.37,13.07l-64.54,22.96-.99-309.15c-.05-15.74-12.74-24.15-27.23-22.83-7.76.71-15.15,1.84-19.8-7.18,26.52-16.54,51.25-32.04,78.05-46.48,8.49-4.58,23.05,5.92,27.55,12.15,7.16,9.92,10.94,19.62,15.94,30.59l63.2-42.98c14.72-10.01,43.07,20.84,52.01,36.77,18.77,33.46,29.45,71.15,27.71,109.59-.67,14.79-5.16,31.9-17.26,40.09l-41.1,27.82c-6.22,4.21-9.86,13.24-7.11,20.73,7.71,21.02,16.77,40.41,29.68,58.76l42.75,60.76c1.5,2.13,2.74,9.91.59,11.38v.03ZM250.94,444.41c8.4-6.07,17.18-13.86,18.43-24.05,3.07-25.19,2.37-49.3.55-74.49-6.05-17.06-13.03-32.41-24.58-46.09-4.65-5.52-15.83-11.46-21.92-5.46-10.67,10.5-18.22,24.13-23.83,37.78v99.87c.02,5.02,5.72,11.91,10.9,11.97l40.45.48h0Z"/>
  <path class="cls-1" d="M1762.85,601.92c-35.7-57.45-27.55-139.28-5.82-199.6,8.57-23.79,24.52-41.31,45.8-54.12l38.96-23.45c2.51-1.51,5.92-6.58,6.27-9.3s-2.29-8.76-4.53-10.81c-21.68-19.79-43.2-37.15-66.36-55.01-23.26-17.93-43.31-36.92-62.32-59.78-2.64-3.18-.66-10.72,3.02-12.61l65.95-33.87c2.89-1.48,10.08,1.6,11.77,4.09,4.98,7.37-7.86,12.74-7.68,18.35.36,11.42,40.62,41.56,52.09,49.54,25.62,17.84,49.62,36.48,70.03,60,17.94,20.68,28.01,45,27.85,72.54l-1.14,203.85c-.12,21.47-12.81,38.54-32.07,46.29-26.78,10.77-53.29,20.89-80.81,28.86-24.29,7.04-47.61-3.43-61.01-25v.03ZM1835.33,588.55c17.52,5.18,32.56-10.41,32.67-27.16l1.24-198.09c.03-4.37-4.23-10.96-7.41-12.12-13.4-4.92-30.17,16.49-34.67,32.3-14.49,50.89-24.67,127.84-12.57,179.57,2.39,10.22,9.82,22.29,20.74,25.52v-.02Z"/>
  <path class="cls-1" d="M667.57,706.07c35.6,3.11,39.17-55.45,41.41-79.58-4.13-.66-13.96-1.98-15.24-5.57l-109.47-308.05c-18.25-9.42-27.59,1.11-41.08-7.51-2.82-1.8-3.43-11.95-.2-13.55l94.22-46.81,92.61,267.86c.49,1.4,2.29,4.03,3,4.96.91,1.2,5.06-3.17,5.56-5.47l54.4-249.39c12.88-12.87,26.7-20.66,45.38-17.86l-122.29,463.02c-5.45,20.62-18.97,38.1-35.94,49.03-22.63,14.57-53.76,14.83-76.4,1.19-21.1-12.71-31.16-35.23-37.1-57.99-2.92-11.16.52-21.18,10.66-26.74,18.3-10.02,38.13-18.71,59.19-20.64,5.71,16.01,12.78,51.49,31.29,53.1h0Z"/>
  <path class="cls-1" d="M1601.54,299.57c-23.76,16.94-38.02,38.04-38.03,68.2l-.08,225.41-51.65,34.52c-2,1.33-6.34,1.87-7.97,1.61-2.05-.32-4.08-5.42-4.09-8.28l-1.01-291.49c-.04-11.81-9.98-25.94-20.77-26.94-15.41-1.43-29.54,1.52-32.62-7.01-.97-2.68,2.48-9.04,5.33-10.36l70.95-32.9c29.11-13.5,34.42,39.45,46.3,52.8l56.04-58.38c9.71-10.12,23.89-11.53,36.13-3.78,14.32,9.08,24.96,22.47,34.14,36.83,9.46,14.8,13.13,30.2,11.75,48.45l-18.31,241.86,15.45,3.07c3.07.61,3.81,9.31.42,11.26l-72.25,41.47c-2.24,1.29-7.74,1.32-8.89.15s-2.23-4.98-2.05-7.25l21.44-268.36c1.38-17.27.9-48.55-18.72-54.6-5.69-1.75-16.43.11-21.5,3.72h0Z"/>
  <path class="cls-1" d="M470.48,629.32c-64.29-1.08-123.85-62.26-119.67-129.3,1.15-18.35,7.79-33.94,21.91-45.72,12.74-10.63,26.44-21.07,41.3-28.9l53.74-28.35c4.03-2.13,8.57-8.88,7.5-13.46l-13.9-59.64c-1.9-4.32-7.16-9.72-12.05-9.74l-92.12-.3,52.75-70.06,104.61,1.65,67.94,308.73c5.97,16.7,14.8,28.94,26.32,44.16l-45.61,27.01c-5.33,3.16-13.17,2.64-16.63-1.91l-25.38-33.4-18.93,24.52c-8.08,10.47-18.5,14.93-31.78,14.7h0ZM484.65,587.92c7.01-3.34,26.01-30.69,24.26-43.68-4.79-35.68-13.38-68.7-20.82-103.64-4.52-21.23-43.55,4.12-52.51,10.56-37.14,26.68-13.43,82.18,10.98,108.74,7.64,8.31,28.94,32.39,38.09,28.03h0Z"/>
  <path class="cls-1" d="M1318.6,628.57c-20.65,4.71-41.86-8.84-52.64-24.97-18.65-27.91-26.91-59.19-28.4-92.61-2.71-60.64-3.23-130.36,23.22-185.19,10.61-22,26.47-38.21,46.47-51.23,18.18-11.84,52.78-36.66,75.48-25.65,30.52,14.82,49.87,44.13,54.78,78.06,6.95,48,8.77,95.59,7.07,144.32-.85,24.39-5.01,47.4-10.65,70.52-5.7,23.34-20.48,40.6-41.29,52.04-23.66,13.01-46.02,28.31-74.03,34.7h0ZM1374.14,533c11.25-62.07,11.29-125.28-.23-187.22-2.81-15.13-12.93-55.82-29.88-57.08-17.11-1.27-28.29,43.11-30.91,57.67-11.02,61.03-11.07,123-.58,184.12,2.59,15.09,13.71,61.59,31.4,60.91,16.85-.64,27.45-43.26,30.2-58.39h0Z"/>
  <path class="cls-1" d="M1462.01,752.55l-40.03,59.73-39.71-58.27-.57,88.95-21.61-.09-.02-125.93,23.32-.87,38.85,60.05,37.94-59.1c7.96-.59,16.28-.53,24.06.15l-.05,125.45-22.07-.11-.12-89.95h.01Z"/>
  <path class="cls-1" d="M1869.33,842.2c-19.62,1.29-38.2.65-56.39.23l.03-125.84,53.36.17c35.14.11,60.89,27.99,61.55,61.39.64,32.37-22.6,61.68-58.55,64.04h0ZM1904.47,780.34c.26-24.87-17.94-43.36-41.61-43.59l-27.75-.26.05,86.05,26.9.06c23.72.06,42.15-17.19,42.41-42.26h0Z"/>
  <polygon class="cls-1" points="1714.55 788.98 1714.39 823.02 1786.12 823.06 1786.46 842.99 1691.76 842.89 1691.72 716.39 1784.95 716.17 1785.38 736.01 1714.52 736.14 1714.61 769.21 1777.19 769.22 1777.61 788.81 1714.55 788.98"/>
  <polygon class="cls-1" points="1627.61 842.46 1605.41 842.65 1605.27 737.18 1565.29 737.07 1565.47 716.38 1667.76 716.42 1667.93 736.89 1627.64 737.19 1627.61 842.46"/>
  <polygon class="cls-1" points="1278.59 842.78 1190.11 842.97 1190.09 717.03 1212.15 716.42 1212.28 822.45 1278.57 822.86 1278.59 842.78"/>
  <path class="cls-1" d="M1540.5,842.63l-22.11.3-.11-126c6.97-.38,13.87-.32,22.16.08l.06,125.62h0Z"/>
  <rect class="cls-1" x="1303.83" y="716.34" width="22.15" height="126.56"/>
</svg>