<?xml version="1.0" standalone="no"?>
<svg xmlns="http://www.w3.org/2000/svg" version="1.1" xmlns:xlink="http://www.w3.org/1999/xlink" width="512" height="512" x="0" y="0" viewBox="0 0 512 512" style="enable-background:new 0 0 512 512" xml:space="preserve" class=""><g><path fill-rule="evenodd" d="M415.148 449.907h40.093c.149-146.638.352-293.282.352-439.907H108.876l-.034 39.943h227.807l78.499 78.499zm-224.416-231.96c-3.573-4.875-2.518-11.724 2.357-15.297s11.724-2.518 15.298 2.357l12.989 17.666 29.793-40.522c3.573-4.875 10.423-5.93 15.298-2.357s5.93 10.422 2.357 15.298l-38.48 52.337c-4.294 5.984-13.298 6.317-17.795.191l-21.816-29.672zm212.416-84.534h-71.47v-71.47zM56.408 502V61.943h263.271v83.47h83.469V502zm173.37-204.381c-75.156-36.211-69.429-97.474-69.563-139.941 23.877 0 51.889-7.853 69.563-25.526 17.673 17.673 45.685 25.526 69.563 25.526-.134 42.468 5.594 103.73-69.563 139.941zM106.226 468.225h247.103a5.977 5.977 0 1 0 0-11.952H106.226a5.977 5.977 0 1 0 0 11.953zm0-42.671a5.977 5.977 0 0 1 0-11.954h247.103a5.977 5.977 0 0 1 0 11.954zm0-42.671a5.977 5.977 0 0 1 0-11.954h247.103a5.977 5.977 0 0 1 0 11.954zm0-42.671a5.977 5.977 0 0 1 0-11.954h247.103a5.977 5.977 0 0 1 0 11.953H106.226z" fill="#cd9e4c" opacity="1" data-original="#000000" class=""/></g></svg>