<?xml version="1.0" standalone="no"?>
<svg xmlns="http://www.w3.org/2000/svg" version="1.1" xmlns:xlink="http://www.w3.org/1999/xlink" width="512" height="512" x="0" y="0" viewBox="0 0 64 64" style="enable-background:new 0 0 512 512" xml:space="preserve"><g><path d="M24.14 24h15.72a2.123 2.123 0 0 0 2.13-2.12v-2.04a4.948 4.948 0 0 0-3.37-4.68l-.94-.31a7.682 7.682 0 0 1-11.36 0l-.94.31a4.948 4.948 0 0 0-3.37 4.68v2.04A2.123 2.123 0 0 0 24.14 24z" fill="#cd9e4c" opacity="1" data-original="#000000"/><path d="M28.48 14.13A5.677 5.677 0 1 0 32 4c-5.33-.059-7.708 6.936-3.52 10.13zM10.48 50.13A5.677 5.677 0 1 0 14 40c-5.33-.059-7.708 6.936-3.52 10.13z" fill="#cd9e4c" opacity="1" data-original="#000000"/><path d="m20.62 51.16-.94-.31a7.682 7.682 0 0 1-11.36 0l-.94.31a4.948 4.948 0 0 0-3.37 4.68v2.04A2.123 2.123 0 0 0 6.14 60h15.72a2.123 2.123 0 0 0 2.13-2.12v-2.04a4.948 4.948 0 0 0-3.37-4.68zM44.32 45.68c.242 7.506 11.12 7.503 11.36 0-.241-7.505-11.12-7.505-11.36 0z" fill="#cd9e4c" opacity="1" data-original="#000000"/><path d="m56.62 51.16-.94-.31a7.682 7.682 0 0 1-11.36 0l-.94.31a4.948 4.948 0 0 0-3.37 4.68v2.04A2.123 2.123 0 0 0 42.14 60h15.72a2.123 2.123 0 0 0 2.13-2.12v-2.04a4.948 4.948 0 0 0-3.37-4.68zM36.897 53.355a18.992 18.992 0 0 1-9.794 0 1 1 0 1 0-.526 1.93 20.912 20.912 0 0 0 10.846 0 1 1 0 1 0-.526-1.93zM51 35c.166 1.059-.737 2.91.77 3.204a1.002 1.002 0 0 0 1.104-.885 21.005 21.005 0 0 0-7.234-18.28 1 1 0 0 0-1.3 1.522A18.951 18.951 0 0 1 51 35zM12.12 38.21c1.63-.15.727-2.14.88-3.21a18.951 18.951 0 0 1 6.66-14.44 1 1 0 0 0-1.3-1.52A20.95 20.95 0 0 0 11 35c.141 1.059-.375 3.071 1.12 3.21zM30.8 41.58l10.31-9.02c1.728-1.411.717-4.443-1.43-4.74a2.586 2.586 0 0 0-2.13.61l-8.48 7.43-2.62-2.62a2.606 2.606 0 0 0-3.69 3.68l4.55 4.55a2.571 2.571 0 0 0 3.49.11z" fill="#cd9e4c" opacity="1" data-original="#000000"/></g></svg>