<?xml version="1.0" standalone="no"?>
<svg xmlns="http://www.w3.org/2000/svg" version="1.1" xmlns:xlink="http://www.w3.org/1999/xlink" width="512" height="512" x="0" y="0" viewBox="0 0 512 512" style="enable-background:new 0 0 512 512" xml:space="preserve"><g><path d="M264.75 327.48c21.66 0 41.27-8.79 55.47-22.96 14.2-14.2 22.96-33.82 22.96-55.47s-8.76-41.27-22.96-55.47c-14.2-14.17-33.82-22.96-55.47-22.96s-41.27 8.79-55.45 22.96c-14.2 14.2-22.99 33.82-22.99 55.47s8.79 41.27 22.99 55.47c14.18 14.17 33.79 22.96 55.45 22.96zM242.36 209.1c3.94-3.17 8.84-5.53 14.29-6.72v-9.61c0-4.48 3.63-8.11 8.11-8.11 4.51 0 8.14 3.63 8.14 8.11v9.61c4.62 1.02 8.87 2.89 12.47 5.39 6.09 4.22 10.35 10.29 11.62 17.23.82 4.39-2.1 8.62-6.49 9.44-4.42.79-8.65-2.13-9.44-6.52-.48-2.61-2.27-5.02-4.9-6.83-3-2.07-6.97-3.34-11.4-3.34-4.85 0-9.18 1.53-12.25 4-2.55 2.04-4.14 4.76-4.14 7.6 0 2.83 1.59 5.53 4.14 7.6 3.06 2.47 7.4 3.97 12.25 3.97h.23c8.45.11 16.19 3 21.91 7.6 6.32 5.1 10.26 12.25 10.26 20.24s-3.94 15.17-10.26 20.24c-3.94 3.17-8.84 5.53-14.26 6.72v9.61c0 4.48-3.66 8.11-8.14 8.11s-8.14-3.63-8.14-8.11v-9.61c-4.62-1.02-8.87-2.89-12.44-5.39-6.09-4.22-10.38-10.29-11.65-17.23-.79-4.39 2.1-8.62 6.52-9.44 4.39-.79 8.62 2.13 9.41 6.52.48 2.61 2.3 5.02 4.9 6.83 3 2.07 6.97 3.34 11.4 3.34 4.85 0 9.18-1.53 12.25-4 2.55-2.04 4.14-4.76 4.14-7.6 0-2.83-1.59-5.53-4.14-7.6-3.06-2.47-7.4-3.97-12.25-3.97h-.23c-8.42-.11-16.19-3-21.91-7.6-6.32-5.1-10.26-12.25-10.26-20.24 0-7.99 3.94-15.17 10.26-20.24zm193.77 39.91c0 7.09-3.34 13.15-9.33 16.92l-13.81 8.7c-8.84 5.58-11.88 16.95-7.03 26.22l7.63 14.54c3.29 6.26 3.12 13.21-.4 19.33-3.54 6.09-9.5 9.69-16.55 9.95l-16.3.65c-10.43.43-18.77 8.73-19.19 19.19l-.68 16.41c-.28 7.06-3.88 12.98-10.01 16.53-6.12 3.52-13.07 3.66-19.3.37l-14.46-7.6c-9.24-4.88-20.61-1.84-26.22 7l-8.79 13.89c-3.77 5.95-9.86 9.3-16.92 9.3-2.47 0-4.79-.4-6.94-1.19-.48-2.44-1.22-4.79-2.18-7 3.83-5.3 6.12-11.79 6.12-18.82 0-17.72-14.46-32.17-32.17-32.17h-32.4c2.61-15.39 2.15-32.85-1.62-47.54.71.77 1.45 1.53 2.21 2.3 17.15 17.15 40.82 27.75 66.95 27.75 26.16 0 49.83-10.6 66.95-27.75 17.15-17.12 27.75-40.82 27.75-66.95 0-26.14-10.6-49.83-27.75-66.95-17.12-17.15-40.79-27.75-66.95-27.75-26.14 0-49.8 10.6-66.95 27.75-17.12 17.12-27.72 40.82-27.72 66.95 0 12.19 2.3 23.84 6.49 34.53-20.21-12.73-46.97 2.81-43.54 31.55.2 12.19-3.86 20.13-9.81 26.79-2.78-1.7-5.13-4.11-6.86-7.14-3.54-6.15-3.69-13.07-.4-19.33l7.6-14.43c4.88-9.24 1.84-20.61-7-26.22L102.66 266c-5.95-3.8-9.3-9.86-9.3-16.92 0-7.09 3.37-13.15 9.35-16.92l13.78-8.7a19.993 19.993 0 0 0 7.06-26.22l-7.63-14.54c-3.29-6.26-3.15-13.21.4-19.3 3.54-6.12 9.47-9.72 16.53-9.98l16.3-.65c10.46-.4 18.79-8.73 19.22-19.16l.68-16.44c.28-7.06 3.88-12.98 10.01-16.53 6.12-3.51 13.04-3.66 19.3-.37l14.43 7.6c9.27 4.88 20.64 1.84 26.22-7l8.82-13.89c3.77-5.95 9.84-9.3 16.92-9.3 7.06 0 13.12 3.34 16.89 9.33l8.7 13.8a19.953 19.953 0 0 0 26.22 7.03l14.57-7.63c6.24-3.26 13.18-3.12 19.3.43 6.12 3.54 9.69 9.47 9.98 16.53l.62 16.3a20.01 20.01 0 0 0 19.19 19.22l16.41.68c7.06.28 13.01 3.86 16.53 10.01 3.51 6.12 3.66 13.04.37 19.3l-7.6 14.43c-4.88 9.24-1.84 20.61 7 26.22l13.89 8.79c6 3.77 9.34 9.83 9.31 16.89zM229.6 409.31h-3.37c8.73 0 15.9 7.14 15.9 15.9 0 8.73-7.17 15.9-15.9 15.9h-2.1c8.76 0 15.9 7.14 15.9 15.9 0 8.73-7.14 15.9-15.9 15.9h-6.24c8.76 0 15.9 7.14 15.9 15.9 0 8.73-7.14 15.9-15.9 15.9h-94c-2.64 0-4.88-.43-7.31-1.33l-13.75-5.16c-.54-.2-1.08-.37-1.59-.54V383.86c2.47-1.28 4.65-3.06 6.55-5.36 15.22-18.51 42.58-26.82 41.47-64.6-2.69-18.62 15.11-25.54 25-9.86 11.14 17.6 10.72 55.39.88 73.47h54.45c8.76 0 15.9 7.14 15.9 15.9.01 8.73-7.13 15.9-15.89 15.9zM85.01 381.39v120.19c0 5.73-4.71 10.43-10.43 10.43H40.9c-5.7 0-10.4-4.71-10.4-10.43V381.39c0-5.73 4.71-10.4 10.4-10.4h33.68c5.72 0 10.43 4.67 10.43 10.4zM256.64 35.48V8.12c0-4.48 3.63-8.14 8.11-8.14 4.51 0 8.14 3.66 8.14 8.14v27.35c0 4.51-3.63 8.14-8.14 8.14-4.48 0-8.11-3.62-8.11-8.13zm107.89 24.58 13.66-23.7a8.141 8.141 0 0 1 11.06-2.98 8.088 8.088 0 0 1 2.98 11.06l-13.66 23.7c-2.24 3.86-7.17 5.22-11.06 2.98-3.89-2.22-5.22-7.18-2.98-11.06zm112.93 75.54-23.7 13.69a8.105 8.105 0 0 1-11.08-2.98c-2.24-3.86-.91-8.82 2.95-11.06l23.7-13.69c3.88-2.24 8.84-.91 11.08 2.95 2.24 3.89.94 8.85-2.95 11.09zM137.28 44.46c-2.24-3.88-.91-8.84 2.95-11.08 3.88-2.24 8.84-.91 11.08 2.95L165 60.03c2.24 3.88.91 8.84-2.95 11.08-3.88 2.24-8.84.94-11.08-2.95zM86.82 146.31c-2.24 3.88-7.2 5.22-11.08 2.98L52.07 135.6c-3.88-2.24-5.22-7.2-2.98-11.08 2.27-3.86 7.23-5.19 11.08-2.95l23.7 13.69a8.068 8.068 0 0 1 2.95 11.05z" fill="#cd9e4c" opacity="1" data-original="#000000"/></g></svg>