<?xml version="1.0" standalone="no"?>
<svg xmlns="http://www.w3.org/2000/svg" version="1.1" xmlns:xlink="http://www.w3.org/1999/xlink" width="512" height="512" x="0" y="0" viewBox="0 0 500 500" style="enable-background:new 0 0 512 512" xml:space="preserve" class=""><g><path fill-rule="evenodd" d="m354.082 305.529-28.203 75.567c-3.883 10.405-9.95 19.974-17.394 12.09-2.215-2.346-4.097-5.492-3.746-8.949l6.219-61.327a.953.953 0 0 1 .583-.796l41.242-17.82a.958.958 0 0 1 1.058.188c.289.275.38.673.241 1.047zm-53.481 155.11v21.007a1.92 1.92 0 0 0 1.899 1.899h23.425a1.922 1.922 0 0 0 1.899-1.899v-21.007a.976.976 0 0 0-.974-.974h-25.274a.976.976 0 0 0-.975.974zm-128.434 0v21.007c0 1.032.868 1.899 1.899 1.899h23.425a1.922 1.922 0 0 0 1.899-1.899v-21.007a.976.976 0 0 0-.974-.974h-25.274a.976.976 0 0 0-.975.974zm316.193-313.14c-13.121-31.616-85.441-20.891-121.338-13.574a.96.96 0 0 0-.767.804.959.959 0 0 0 .486 1 35.93 35.93 0 0 1 10.241 8.615.953.953 0 0 0 .934.342c23.074-4.315 43.337-6.351 59.687-5.952 45.281 1.105 52.027 18.556 20.749 51.279-8.554 8.949-19.634 18.483-32.862 28.317a.952.952 0 0 0-.386.898.951.951 0 0 0 .588.781l11.364 4.802c.332.14.687.095.973-.125 11.645-8.956 21.561-17.679 29.479-25.963 18.653-19.512 26.619-37.329 20.852-51.224zm-73.958 78.753c-4.475-1.341-9.002-1.947-13.527-1.817-10.538.302-17.316 4.139-26.17 8.597a.948.948 0 0 1-.949-.041.95.95 0 0 1-.463-.83v-56.617c0-19.58-15.996-35.576-35.576-35.576H162.274c-19.579 0-35.575 15.996-35.575 35.576v170.943a.968.968 0 0 1-.788.957c-15.318 2.983-29.479 4.995-42.175 5.989-33.367 2.613-55.647-1.418-60.425-12.93-3.964-9.55 4.528-24.285 22.402-41.784 16.312-15.971 40.136-33.573 69.464-51.285a.95.95 0 0 0 .471-.834v-12.439c0-.36-.179-.668-.491-.846s-.669-.175-.979.008c-32.714 19.334-59.316 38.758-77.324 56.389-21.728 21.274-31.402 40.753-25.223 55.642 7.147 17.221 33.984 23.759 73.045 20.7 30.015-2.351 71.809-12.948 110.827-25.068.789-.245 1.594-.443 2.364-.737 12.463-4.772-13.473-37.775-19.974-48.299-.171-.278-.195-.592-.067-.892s.37-.501.689-.571c.326-.071.674-.041 1.084.173l38.202 19.982c8.49 4.44 17.23 7.276 25.772 2.956l144.617-73.149c8.484-4.291 17.383-4.543 26.245-.758l22.888 9.777c2.011.859 1.999 3.673.009 4.503C336.961 297.34 235.619 350.72 127.49 371.349a.967.967 0 0 0-.792.956v42.428c0 19.579 15.996 35.576 35.575 35.576h175.442c19.579 0 35.576-15.996 35.576-35.576v-118.66c0-.397.223-.737.588-.894l68.451-29.576c12.151-5.237 12.125-22.56-.059-27.764l-13.907-5.94-.017-.007-13.861-5.608a.767.767 0 0 0-.084-.032zm-123.685-98.24V64.094c0-.269.096-.5.287-.69a.939.939 0 0 1 .691-.284c4.528.015 8.3.003 12.148-3.845a13.06 13.06 0 0 0 3.842-9.255V29.552c0-7.217-5.881-13.098-13.097-13.098h-89.183c-7.217 0-13.098 5.881-13.098 13.098V50.02c0 7.216 5.881 13.097 13.098 13.097h2.896c.537 0 .974.438.974.974v63.92c0 .537.438.974.974.974h10.721a.976.976 0 0 0 .974-.974v-63.92c0-.537.438-.974.974-.974h54.153c.537 0 .974.438.974.974v63.92c0 .537.438.974.974.974h10.721a.975.975 0 0 0 .977-.973zm-67.975 120.012a.613.613 0 0 0-.042-.028c-9.01-5.726-5.162-12.393 5.452-9.421l.036.009 88.698 21.261c.406.097.694.423.741.838s-.16.797-.535.982L273.4 283.379a.954.954 0 0 1-.998-.078z" clip-rule="evenodd" fill="#cd9e4c" opacity="1" data-original="#000000" class=""/></g></svg>