<?xml version="1.0" standalone="no"?>
<svg xmlns="http://www.w3.org/2000/svg" version="1.1" xmlns:xlink="http://www.w3.org/1999/xlink" width="512" height="512" x="0" y="0" viewBox="0 0 512 512" style="enable-background:new 0 0 512 512" xml:space="preserve" class=""><g><path d="M310.72 321.8c57.06.48 93.46-11.54 113.56-31.55-39.8-7.88-69.82-42.97-69.82-85.1 0-32.74 18.14-61.23 44.87-76-7.09-10.01-14.91-19.98-23.33-29.88-5.13 3.6-11.37 5.7-18.11 5.7h-94.25c-6.75 0-13.04-2.13-18.17-5.75-90.28 106.08-111.34 224.05 65.25 222.58zm13.1-103.32c-3.32-3.15-7.97-5.07-13.1-5.07-9.47 0-18.09-3.69-24.38-9.58-6.41-6.04-10.4-14.4-10.4-23.61s4-17.57 10.4-23.61c4.39-4.14 9.95-7.17 16.13-8.62v-9.81c0-4.54 3.69-8.22 8.25-8.22 4.54 0 8.25 3.69 8.25 8.22v9.81c6.15 1.45 11.71 4.48 16.13 8.62 6.41 6.04 10.37 14.4 10.37 23.61 0 4.54-3.69 8.25-8.22 8.25-4.56 0-8.25-3.71-8.25-8.25 0-4.51-1.98-8.62-5.19-11.62-3.32-3.15-7.97-5.07-13.1-5.07s-9.78 1.93-13.1 5.07c-3.2 3-5.19 7.12-5.19 11.62 0 4.51 1.98 8.62 5.19 11.62 3.32 3.12 7.97 5.07 13.1 5.07H312c.4 0 .79.03 1.19.08 8.48.57 16.16 4.11 21.91 9.5 6.41 6.04 10.37 14.4 10.37 23.61s-3.97 17.58-10.37 23.58c-4.42 4.14-9.98 7.2-16.13 8.65v9.78c0 4.56-3.71 8.25-8.25 8.25-4.56 0-8.25-3.69-8.25-8.25v-9.78a35.314 35.314 0 0 1-16.13-8.65c-6.41-6.01-10.4-14.37-10.4-23.58 0-4.56 3.69-8.25 8.25-8.25s8.25 3.69 8.25 8.25c0 4.51 1.98 8.62 5.19 11.62 3.32 3.12 7.97 5.07 13.1 5.07s9.78-1.96 13.1-5.07c3.2-3 5.19-7.11 5.19-11.62-.01-4.51-2-8.62-5.2-11.62zM233.79 18.32c-2.49-3.88-2.49-8.53-.06-12.44C236.2 2 240.42.01 244.98.61l64.26 8.22c1.02.11 1.93.11 2.95 0L376.45.61c4.56-.6 8.79 1.39 11.23 5.27 2.47 3.91 2.44 8.56-.06 12.44l-16.75 26.02a31.483 31.483 0 0 0-12.98-2.78h-94.25c-4.65 0-9.07.99-13.07 2.81zm139.32 54.94c0 8.39-6.83 15.25-15.22 15.25h-94.25c-8.39 0-15.22-6.86-15.22-15.25 0-8.36 6.83-15.22 15.22-15.22h94.25c8.39 0 15.22 6.86 15.22 15.22zm66.16 276.94-63.69 31.32c-3.12-8.62-8.73-16.27-16.24-21.83l40.99-20.15c13.89-6.85 30.64-2.01 38.94 10.66zm69.11 18.29c7.4 15.02 1.16 33.39-13.89 40.79-59.44 29.25-118.91 58.54-178.38 87.79-19.08 9.38-38.49 11.31-59.05 5.81L119.7 466.06l-34.95-116.7 25.23-15.51c20.47-12.56 42.72-15.79 65.91-9.58 54.51 14.6 108.99 29.2 163.5 43.8 17.09 4.59 26.62 22.82 20.89 39.4-5.16 14.91-21.2 23.58-36.65 19.45l-75.6-20.27c-3.83-1.02-7.8 1.28-8.82 5.1l-.54 1.98a7.192 7.192 0 0 0 5.1 8.84l75.57 20.24c24.86 6.66 50.83-8.31 57.49-33.17.99-3.71 1.5-7.43 1.56-11.11l89.23-43.91c14.97-7.36 33.39-1.1 40.76 13.87zM108.81 487.15c1.28 4.2-1.13 8.65-5.36 9.92l-47.08 14.09c-4.2 1.28-8.65-1.13-9.92-5.33L.84 353.49c-1.28-4.2 1.13-8.67 5.33-9.92l47.08-14.12c4.22-1.25 8.67 1.16 9.95 5.36zm262.12-281.99c0 38.69 31.58 70.27 70.3 70.27 38.69 0 70.27-31.58 70.27-70.27 0-38.72-31.58-70.27-70.27-70.27-38.72-.01-70.3 31.54-70.3 70.27zm35.6-23.19c-3.17-3.23-3.17-8.45.06-11.62 3.2-3.2 8.42-3.2 11.62.03l23.02 23.13 23.02-23.13c3.2-3.23 8.39-3.23 11.62-.03 3.2 3.17 3.23 8.39.03 11.62l-23.07 23.19 23.07 23.19c3.2 3.2 3.17 8.42-.03 11.62-3.23 3.2-8.42 3.17-11.62-.03l-23.02-23.13-23.02 23.13c-3.2 3.2-8.42 3.23-11.62.03-3.23-3.2-3.23-8.42-.06-11.62l23.1-23.19z" fill="#cd9e4c" opacity="1" data-original="#000000" class=""/></g></svg>